<svg width="984" height="500" viewBox="0 0 984 500" fill="none" xmlns="http://www.w3.org/2000/svg">
<path d="M395.919 627.204C349.51 535.259 328.159 427.881 307.519 324.171C294.431 258.288 280.871 190.158 261.051 126.816C238.828 55.8575 210.86 -1.55848 175.54 -48.7366C110.986 -135.036 13.1831 -182.824 -81.4044 -228.893C-181.622 -277.784 -285.183 -328.323 -349.376 -424.846C-379.645 -470.298 -401.919 -524.785 -417.517 -591.363C-432.323 -654.538 -439.171 -720.516 -443.924 -776.735C-446.072 -802.071 -447.948 -827.923 -449.736 -852.819C-451.507 -877.233 -453.329 -902.494 -455.422 -927.24L-455.52 -928.309L-452.148 -929.794L-452.002 -928.219C-450.219 -905.683 -448.649 -882.865 -447.099 -860.557C-440.808 -769.743 -434.31 -675.826 -413.802 -590.87C-404.136 -548.915 -389.694 -508.455 -370.8 -470.392C-351.566 -431.897 -326.361 -397.242 -296.245 -367.888C-235.343 -308.536 -156.544 -270.498 -80.3619 -233.738C-60.8892 -224.386 -40.9333 -214.694 -21.5482 -204.848C16.694 -185.406 66.0584 -158.653 108.823 -124.169C149.615 -91.2766 184.073 -50.27 210.35 -3.34562C265.195 93.8721 288.114 209.337 310.337 320.99C333.878 439.167 358.219 561.4 420.384 661.892C448.681 707.578 485.556 746.391 528.701 775.9C573.641 806.369 623.602 827.523 676.025 838.28C756.625 855.457 845.583 852.834 933.615 830.615L934.153 832.996L922.704 838.009C900.025 843.313 877.119 847.351 854.08 850.108C773.322 859.795 695.151 852.82 624.89 829.256C524.88 795.895 445.724 725.993 395.919 627.204Z" fill="white"/>
<path d="M393.904 664.214C346.986 571.079 325.404 462.62 304.521 357.717C291.255 291.058 277.548 222.206 257.474 158.127C234.911 86.3564 206.72 28.2562 171.007 -19.4434C105.726 -106.707 6.81353 -154.988 -88.8565 -201.553C-190.189 -250.993 -294.868 -302.137 -359.906 -399.753C-390.514 -445.704 -413.058 -500.813 -428.833 -568.166C-443.786 -632.063 -450.73 -698.797 -455.543 -755.663C-457.714 -781.252 -459.595 -807.445 -461.422 -832.763C-463.549 -861.912 -465.706 -891.967 -468.355 -921.594L-468.451 -922.635L-464.976 -924.161L-464.831 -922.586C-462.572 -895.471 -460.638 -867.55 -458.764 -840.561C-452.405 -748.731 -445.836 -653.742 -425.106 -567.817C-415.33 -525.389 -400.73 -484.471 -381.632 -445.974C-362.168 -407.046 -336.666 -372.004 -306.201 -342.324C-244.598 -282.289 -164.908 -243.817 -87.8321 -206.595C-68.3491 -197.131 -47.962 -187.377 -28.3798 -177.412C10.2802 -157.764 60.2041 -130.708 103.486 -95.8033C144.76 -62.5554 179.629 -21.096 206.226 26.3533C261.621 124.927 284.862 241.576 307.359 354.475C331.149 473.903 355.758 597.611 418.643 699.267C447.294 745.491 484.637 784.744 528.327 814.562C573.769 845.394 624.295 866.799 677.314 877.681C717.998 886.205 759.486 889.962 801.047 888.887L807.229 888.743L795.703 893.794L795.545 893.813C737.843 895.122 680.432 886.652 625.441 868.717C524.343 834.804 444.263 764.102 393.904 664.214Z" fill="white"/>
<path d="M-473.034 -812.487C-475.501 -846.486 -478.046 -881.614 -481.264 -915.978L-481.355 -916.963L-477.803 -918.526L-477.658 -916.951C-474.731 -885.168 -472.567 -852.156 -470.373 -820.541C-463.945 -727.668 -457.3 -631.579 -436.324 -544.716C-426.433 -501.805 -411.665 -460.42 -392.35 -421.482C-372.706 -382.126 -346.971 -346.682 -316.224 -316.637C-253.888 -255.864 -173.258 -216.993 -95.2939 -179.367C-75.5087 -169.796 -55.0298 -159.911 -35.2532 -149.856C3.79824 -129.999 54.3056 -102.672 98.1053 -67.3453C139.83 -33.7107 175.077 8.22448 201.958 56.2135C257.977 155.793 281.508 273.858 304.309 388.029C328.393 508.928 353.279 633.911 416.854 736.707C445.796 783.447 483.523 823.146 527.67 853.317C573.624 884.5 624.723 906.146 678.344 917.143C692.149 920.094 706.383 922.51 720.639 924.298L725.105 924.871L716.371 928.762L716.16 928.787C685.59 924.772 655.449 917.853 626.092 908.111C523.793 873.859 442.791 802.386 391.877 701.37C344.411 607.191 322.582 497.51 301.483 391.411C288.1 324.055 274.236 254.369 253.932 189.521C231.294 116.935 202.591 58.185 166.481 9.93569C100.445 -78.3184 0.420936 -127.119 -96.3446 -174.321C-198.793 -224.338 -304.747 -276.04 -370.433 -374.63C-393.897 -410.461 -412.383 -449.789 -425.325 -491.407L-441.014 -548.874C-455.523 -612.284 -462.35 -678.321 -467.132 -734.565C-469.261 -760.558 -471.186 -786.944 -473.034 -812.487Z" fill="white"/>
<path d="M-325.921 -290.875C-262.918 -229.5 -181.418 -190.136 -102.619 -152.098C-82.5577 -142.418 -61.8555 -132.418 -41.8266 -122.222C-2.27341 -102.112 48.7673 -74.4797 93.0189 -38.8664C135.19 -4.86809 170.82 37.5117 198.003 86.007C254.657 186.705 278.441 306.075 301.411 421.506C325.775 543.708 350.901 670.141 415.244 774.068C470.13 862.778 554.324 924.17 658.757 951.57L662.245 952.488L654.963 955.693L654.7 955.725C645.322 953.21 635.916 950.385 626.781 947.329C523.356 912.699 441.457 840.425 389.987 738.281C341.999 643.056 319.925 532.153 298.585 424.888C285.024 356.757 271.012 286.321 250.538 220.783C227.561 147.412 198.639 88.0066 162.027 39.2203C95.3137 -50.0332 -5.87655 -99.3769 -103.701 -147.105C-207.316 -197.665 -314.453 -249.794 -380.873 -349.718C-384.206 -354.721 -387.569 -360.062 -390.895 -365.578L-390.911 -365.747L-395.494 -382.601L-391.788 -376.135C-373.65 -344.544 -351.484 -315.852 -325.921 -290.875Z" fill="white"/>
<path d="M-335.874 -265.282C-272.171 -203.223 -189.722 -163.376 -110.037 -124.96C-89.8077 -115.187 -68.8847 -105.099 -48.7666 -94.8009C-8.7956 -74.4853 42.8072 -46.5219 87.5526 -10.4559C130.268 23.9543 166.347 66.8728 193.851 115.994C251.085 217.788 275.149 338.462 298.396 455.168C323.073 578.754 348.458 706.549 413.465 811.62C459.108 885.428 526.469 941.588 607.923 974.104L610.688 975.251L604.042 978.153L603.779 978.184C510.429 940.64 435.778 870.567 387.884 775.501C339.348 679.233 317.026 567.081 295.472 458.647C281.763 389.766 267.596 318.524 246.847 252.308C223.635 178.112 194.388 118.063 157.459 68.7175C89.9655 -21.4946 -12.3126 -71.3904 -111.196 -119.646C-206.737 -166.255 -305.507 -214.438 -372.766 -298.934L-372.945 -299.14L-376.158 -310.926L-373.142 -307.051C-361.681 -292.176 -349.227 -278.217 -335.874 -265.282Z" fill="white"/>
<path d="M-345.765 -239.61C-281.495 -176.88 -198.032 -136.7 -117.585 -97.8069C-97.1901 -87.9683 -75.9021 -77.6681 -55.4132 -67.3859C-15.0218 -46.8363 37.1381 -18.5984 82.4008 17.889C125.519 52.6371 161.942 95.9666 189.716 145.554C247.611 248.463 271.901 370.446 295.391 488.345C320.198 613.338 345.999 742.477 411.722 848.684C449.934 910.432 502.734 960.146 564.852 992.864L567.23 994.143L561.174 996.803L560.838 996.616C523.622 976.368 489.602 950.085 459.965 918.683C430.516 887.294 405.569 851.399 385.916 812.138C336.884 714.82 314.319 601.474 292.601 491.837C278.743 422.206 264.425 350.186 243.448 283.229C219.974 208.212 190.391 147.407 153.077 97.6241C84.8145 6.28143 -18.5646 -44.0226 -118.533 -92.8019C-203.83 -134.412 -292.022 -177.438 -357.936 -245.601L-358.17 -245.829L-360.702 -255.137L-358.077 -252.324C-354.283 -248.087 -350.116 -243.837 -345.765 -239.61Z" fill="white"/>
<path d="M-124.968 -70.5883C-104.266 -60.5875 -82.8677 -50.2437 -62.1714 -39.7304C-21.3674 -19.0312 31.3862 9.59046 77.1084 46.4493C120.694 81.6278 157.514 125.467 185.599 175.623C244.09 279.512 268.657 402.771 292.421 522.201C317.557 648.462 343.572 779.054 409.977 886.317C440.645 935.812 480.734 977.743 527.665 1009.41L529.651 1010.76L524.234 1013.15L523.864 1012.88C465.421 972.429 418.377 917.472 384.014 849.221C334.432 750.832 311.648 636.26 289.608 525.439C275.601 455.059 261.108 382.291 239.932 314.619C216.196 238.78 186.322 177.413 148.577 126.999C79.5985 34.804 -24.9051 -16.1613 -125.961 -65.4926C-202.545 -102.858 -281.851 -141.49 -344.865 -197.802L-345.126 -198.026L-347.331 -206.094L-344.923 -203.909C-281.647 -146.207 -201.986 -107.76 -124.968 -70.5883Z" fill="white"/>
<path d="M-132.404 -43.3635C-111.481 -33.2755 -89.8648 -22.8726 -68.94 -12.1876C-27.6868 8.77049 25.5949 37.6416 71.832 74.8937C115.858 110.419 153.058 154.683 181.449 205.325C240.585 310.446 265.411 435.066 289.409 555.606C314.844 683.367 341.106 815.209 408.238 923.721C431.874 961.974 461.142 995.831 494.924 1024L496.597 1025.42L491.691 1027.57L491.312 1027.22C446.274 988.762 409.078 940.846 381.957 886.35C331.856 786.943 308.826 671.15 286.546 559.163C272.388 488.005 257.743 414.459 236.34 346.047C212.334 269.302 182.156 207.516 144.004 156.44C74.2721 63.2829 -31.3192 11.7656 -133.434 -38.0928C-202.222 -71.6446 -273.378 -106.363 -332.837 -153.517L-333.126 -153.767L-335.135 -161.147L-332.866 -159.315C-273.113 -111.286 -201.576 -76.7555 -132.404 -43.3635Z" fill="white"/>
<path d="M-139.788 -16.1451C-118.668 -5.93849 -96.8252 4.60797 -75.7348 15.3584C-34.035 36.5473 19.8065 65.721 66.5057 103.373C111.002 139.247 148.605 183.955 177.306 235.113C237.051 341.354 262.13 467.281 286.379 589.099C312.059 718.082 338.622 851.452 406.47 961.101C423.528 988.67 443.507 1014.01 466.017 1036.63L467.424 1038.05L462.925 1040.01L462.516 1039.6C429.449 1005.73 401.608 966.448 380.006 923.183C329.356 822.732 306.081 705.717 283.558 592.537C269.28 520.654 254.484 446.33 232.826 377.18C208.598 299.751 178.072 237.068 139.534 185.556C69.0724 91.4055 -37.6592 39.3424 -140.857 -11.0118C-202.435 -41.0491 -266.128 -72.1122 -321.362 -111.783L-321.703 -112.026L-323.595 -118.994L-321.43 -117.434C-265.832 -76.9821 -201.752 -46.0506 -139.788 -16.1451Z" fill="white"/>
<path d="M-147.279 11.0574C-125.939 21.3512 -103.846 32.01 -82.4801 42.8695C-40.3599 64.2923 14.0489 93.853 61.3078 131.807C106.274 168.066 144.265 213.26 173.25 264.974C233.653 372.303 258.988 499.564 283.485 622.632C309.45 752.974 336.274 887.734 404.838 998.521C415.593 1015.92 427.511 1032.45 440.502 1047.99L441.67 1049.41L437.429 1051.29L437.009 1050.77C414.133 1023.15 394.331 992.773 377.993 960.222C326.846 858.693 303.325 740.457 280.588 626.107C266.135 553.477 251.187 478.376 229.305 408.514C204.815 330.262 173.96 266.908 135.029 214.874C63.8379 119.731 -44.0079 67.1186 -148.291 16.2405C-203.103 -10.4849 -259.649 -38.1397 -310.377 -71.6112L-310.745 -71.8515L-312.558 -78.5443L-310.462 -77.1464C-259.495 -43.1063 -202.46 -15.6239 -147.279 11.0574Z" fill="white"/>
<path d="M-154.681 38.3642C-133.117 48.7735 -110.801 59.5476 -89.238 70.5257C-43.9937 93.536 8.57842 122.208 55.9922 160.399C101.417 197.032 139.793 242.692 169.071 294.937C230.08 403.359 255.697 531.952 280.44 656.241C306.65 787.805 333.677 923.906 403.049 1035.96C407.643 1043.4 412.584 1050.85 417.69 1058.09L418.672 1059.51L414.534 1061.34L414.077 1060.71C399.87 1040.63 387.124 1019.4 375.95 997.209C324.257 894.665 300.491 775.206 277.511 659.663C262.909 586.283 247.81 510.404 225.729 439.826C200.977 360.753 169.797 296.755 130.604 244.184C58.6567 148.051 -50.3031 94.89 -155.674 43.4599C-203.975 19.8779 -253.942 -4.47121 -299.666 -32.6849L-300.034 -32.9252L-301.831 -39.4492L-299.974 -38.051C-253.738 -9.47222 -203.384 14.7452 -154.681 38.3642Z" fill="white"/>
<path d="M-162.126 65.4768C-140.313 75.9983 -117.8 86.891 -96.0163 97.9563C-52.9764 119.838 2.57007 149.916 50.6008 188.744C96.4937 225.746 135.266 271.87 164.843 324.65C226.565 434.181 252.425 563.967 277.537 689.662C303.52 820.201 330.424 955.265 397.568 1067.07L398.386 1068.46L394.092 1070.34L393.654 1069.62C386.786 1058.27 380.159 1046.36 374.041 1034.21C321.824 930.589 297.812 809.909 274.592 693.2C259.788 619.077 244.591 542.413 222.229 471.101C197.218 391.234 165.739 326.59 125.989 273.459C53.2364 176.371 -56.7585 122.652 -163.214 70.6976C-205.307 50.153 -248.816 28.9536 -289.382 5.35369L-289.776 5.11657L-291.539 -1.32625L-289.545 -0.171943C-248.522 23.7712 -204.587 44.9764 -162.126 65.4768Z" fill="white"/>
<path d="M-169.62 92.6519C-147.583 103.289 -124.794 114.291 -102.787 125.471C-59.3557 147.562 -3.24699 177.971 45.4037 217.18C91.7576 254.558 130.923 301.146 160.809 354.453C223.06 465.115 249.184 596.319 274.536 723.18C298.576 843.885 323.418 968.675 379.355 1075.15L380.065 1076.51L375.745 1078.39L375.326 1077.59C374.293 1075.61 373.196 1073.52 372.077 1071.18C319.345 966.604 295.083 844.645 271.647 726.74C256.762 651.745 241.345 574.424 218.784 502.397C193.538 421.706 161.734 356.418 121.59 302.766C48.1842 204.647 -63.03 150.391 -170.542 97.9382C-206.565 80.3624 -243.812 62.1941 -279.081 42.7078L-279.472 42.4989L-281.233 36.0841L-279.271 37.1853C-243.69 56.89 -206.042 75.0672 -169.62 92.6519Z" fill="white"/>
<path d="M-177.139 119.83C-154.879 130.582 -131.815 141.693 -109.555 153.014C-65.6796 175.307 -8.96129 205.984 40.1279 245.624C86.9077 283.405 126.432 330.468 156.593 384.306C219.464 496.201 245.854 628.568 271.351 756.72C293.42 867.567 316.259 982.16 362.515 1082.54L363.115 1083.86L359.224 1085.78L358.823 1084.89C313.266 984.879 290.552 870.783 268.609 760.433C253.663 684.763 238.004 606.561 215.219 533.821C189.71 452.308 157.579 386.349 117.054 332.316C42.8872 233.15 -69.4383 178.374 -178.059 125.429C-208.128 110.722 -239.304 95.5505 -269.082 79.6712L-269.473 79.4622L-271.237 73.0194L-269.308 74.0393C-239.136 89.8712 -207.634 105.117 -177.139 119.83Z" fill="white"/>
<path d="M-184.555 146.995C-162.045 157.86 -138.755 169.114 -116.272 180.551C-69.2201 204.425 -14.3254 234.354 34.853 274.097C82.1431 312.219 122.092 359.748 152.56 414.137C216.129 526.973 242.707 660.796 268.481 790.222C288.58 891.238 309.401 995.751 347.578 1089.25L348.095 1090.53L344.056 1092.29L343.674 1091.31C306.179 998.298 285.489 894.339 265.52 793.876C250.322 717.496 234.589 638.479 211.604 565.024C185.845 482.802 153.404 416.083 112.444 361.363C37.5549 261.289 -75.8873 205.936 -185.599 152.41C-209.874 140.563 -234.956 128.329 -259.246 115.744L-259.664 115.538L-261.43 109.067L-259.533 110.034C-234.804 122.765 -209.288 135.089 -184.555 146.995Z" fill="white"/>
<path d="M-191.71 174.386C-169.087 185.322 -145.694 196.536 -123.099 208.044C-78.4614 230.814 -20.5686 262.118 29.545 302.488C77.286 340.993 117.619 388.985 148.389 443.899C212.513 557.863 239.426 693.011 265.45 823.715C283.61 914.925 302.401 1009.24 333.651 1095.36L334.109 1096.58L330.2 1098.3L329.838 1097.27C299.138 1011.63 280.485 917.945 262.438 827.375C247.088 750.217 231.206 670.45 207.967 596.258C181.967 513.155 149.209 445.877 107.853 390.607C32.2077 289.543 -82.3198 233.666 -193.09 179.613C-211.64 170.463 -230.81 161.217 -249.491 151.799L-249.909 151.593L-251.709 145.041L-249.788 145.976C-230.471 155.66 -210.77 165.183 -191.71 174.386Z" fill="white"/>
<path d="M-199.258 201.539C-176.36 212.585 -152.709 223.995 -129.861 235.643C-84.6432 258.657 -26.3011 290.22 24.2669 330.905C72.4825 369.79 113.22 418.255 144.302 473.709C209.033 588.765 236.198 725.219 262.498 857.171C278.693 938.606 295.463 1022.82 320.902 1100.98L321.282 1102.22L317.475 1103.9L317.109 1102.8C292.168 1025.15 275.676 941.642 259.49 860.887C244.005 783.12 227.997 702.572 204.52 627.526C178.179 543.611 145.175 475.68 103.396 419.864C27.0662 318 -88.583 261.49 -200.304 206.925C-213.168 200.62 -226.474 194.14 -239.512 187.684L-239.929 187.478L-241.766 180.817L-239.872 181.755C-226.443 188.42 -212.614 195.093 -199.258 201.539Z" fill="white"/>
<path d="M-206.641 228.757C-183.572 239.925 -159.688 251.563 -136.632 263.158C-90.9987 286.349 -32.0944 318.243 19.0013 359.462C67.662 398.676 108.781 447.558 140.16 503.496C205.525 619.67 232.971 757.428 259.494 890.66C273.755 962.347 288.53 1036.45 308.998 1106.25L309.346 1107.43L305.555 1109.28L305.236 1108.12C285.143 1038.93 270.569 965.573 256.323 894.624C240.703 815.963 224.517 734.64 200.828 659.022C174.41 574.263 140.894 505.683 98.7577 449.454C21.6588 346.46 -95.0967 289.485 -208.011 234.382L-230.061 223.604L-230.479 223.398L-232.323 216.652L-230.431 217.563L-206.641 228.757Z" fill="white"/>
<path d="M-143.375 290.698C-97.3212 314.123 -37.8336 346.288 13.7243 387.907C62.8946 427.511 104.44 476.894 136.136 533.411C202.128 650.62 229.834 789.768 256.608 924.278C268.96 986.212 281.69 1050.23 298.027 1111.26L298.346 1112.42L294.665 1114.03L294.344 1112.84C278.359 1052.45 265.78 989.21 253.603 928.023C237.807 848.615 221.473 766.542 197.556 690.184C170.773 604.644 137.058 535.348 94.5211 478.514C16.69 374.498 -101.153 316.971 -215.284 261.36L-220.544 258.806L-222.428 251.922L-215.363 255.312C-191.652 266.8 -167.103 278.728 -143.375 290.698Z" fill="white"/>
<path d="M-150.169 318.244C-103.672 341.872 -43.6455 374.399 8.39578 416.358C58.0104 456.35 99.9245 506.21 131.894 563.267C198.499 681.654 226.456 822.08 253.505 957.837C263.896 1010.02 274.636 1063.99 287.417 1115.86L287.665 1117.11L284.037 1118.71L283.736 1117.47C271.228 1066.25 260.642 1013.09 250.429 961.675C234.484 881.518 217.996 798.638 193.749 721.581C166.704 635.219 132.695 565.333 89.704 507.899C55.5309 462.204 10.9599 421.681 -46.5061 384.041C-97.1265 350.869 -153.012 322.879 -210.615 294.726L-211.062 294.495L-212.985 287.474L-211.093 288.385C-191.41 297.711 -170.674 307.793 -150.169 318.244Z" fill="white"/>
<path d="M-156.914 345.757C-107.045 371.056 -49.0401 402.716 3.14561 444.8C53.2023 485.194 95.4853 535.54 127.733 593.143C194.973 712.647 223.207 854.348 250.48 991.387C258.938 1033.85 267.691 1077.79 277.461 1120.36L277.725 1121.49L274.121 1123.06L273.844 1121.78C264.302 1079.96 255.732 1036.85 247.454 995.191C231.36 914.283 214.723 830.654 190.354 752.843C163.076 665.684 128.713 595.13 85.4071 537.165C13.103 440.62 -91.1854 384.197 -200.688 330.333L-201.106 330.128L-203.071 322.941L-201.205 323.855C-183.869 332.24 -169.773 339.223 -156.914 345.757Z" fill="white"/>
<path d="M-163.706 373.33C-73.6113 419.114 -30.0406 450.799 -2.14352 473.388C48.3889 514.126 91.0749 564.917 123.628 623.039C191.5 743.634 219.99 886.669 247.542 1025.01C254.042 1057.76 260.808 1091.67 267.965 1124.62L268.2 1125.73L264.622 1127.3L264.342 1126C257.414 1093.78 250.835 1060.76 244.493 1028.85C228.25 947.188 211.459 862.752 186.864 784.229C159.325 696.249 124.634 625.022 80.8609 566.602C49.0236 524.039 8.68476 486.165 -42.4558 450.809C-91.0143 417.22 -144.807 389.149 -190.972 366.25L-191.416 366.047L-193.391 358.748L-191.526 359.662C-181.191 364.479 -172.077 369.045 -163.706 373.33Z" fill="white"/>
</svg>
