<svg width="60" height="60" viewBox="0 0 60 60" fill="none" xmlns="http://www.w3.org/2000/svg">
<path d="M37.7591 0.203785C36.2689 0.773781 35.1308 2.33177 34.9548 4.04176L34.8844 4.76376L33.8049 5.48575C33.2064 5.87841 32.2091 6.60041 31.5872 7.08174C30.9653 7.56307 30.4373 7.95573 30.4021 7.95573C30.3669 7.95573 29.8389 7.56307 29.2287 7.09441C20.5457 0.29245 13.4234 1.74911 11.6751 10.6917C11.3582 12.351 11.2409 15.5937 11.4404 17.6457C11.5108 18.4817 11.5929 19.2923 11.5929 19.457C11.6164 19.7103 11.499 19.799 10.9124 20.065C8.04933 21.3316 4.99857 23.4596 3.40278 25.3216C1.40805 27.6649 0.539751 30.4009 1.03257 32.8456C1.20857 33.6942 1.20857 33.7449 0.985633 34.0489C0.856562 34.2262 0.586686 34.7329 0.375479 35.1889C0.0469349 35.9236 0 36.1262 0 37.0889C0 37.9882 0.0469349 38.2795 0.316811 38.8875C1.39631 41.3829 4.11854 42.3202 6.24234 40.9269C6.9229 40.4835 6.9229 40.4835 7.27491 40.7115C8.15494 41.2689 10.0558 42.2948 10.8889 42.6622C11.6868 43.0168 11.8041 43.1055 11.7455 43.3462C11.546 44.2708 11.4169 46.8801 11.4756 48.7421C11.6164 52.9094 12.5316 55.7341 14.3738 57.7354C16.5563 60.1041 19.8065 60.6361 23.5026 59.2301C25.3566 58.5334 27.9849 56.9248 29.9797 55.2781L30.5077 54.8474L31.4464 55.6074C34.1569 57.7987 37.102 59.3314 39.5661 59.8381C40.892 60.1041 42.7342 60.0281 43.8489 59.6481C44.8111 59.3187 46.2309 58.3054 46.8528 57.5201L47.3221 56.9374L47.9323 57.1021C49.751 57.5707 51.687 56.5701 52.5319 54.7208C53.6348 52.3141 52.6375 49.5655 50.3025 48.5395L49.6336 48.2481L49.6102 47.5768C49.5632 46.4495 49.3286 43.6248 49.2582 43.3208C49.2112 43.0802 49.2816 43.0042 49.8214 42.7635C51.2529 42.1302 53.4706 40.8635 54.6322 40.0275C61.6255 34.9736 61.8015 28.1843 55.0664 22.991C54.0573 22.2183 51.0182 20.445 49.8449 19.951C49.5632 19.837 49.3403 19.6723 49.3403 19.5837C49.3403 19.495 49.399 18.9377 49.4576 18.3423C49.6219 16.873 49.6219 13.187 49.4576 11.8824C49.2582 10.1977 48.8944 8.89306 48.2608 7.44907C47.7563 6.30908 47.5333 5.96708 46.7002 5.08042C45.7029 3.99109 44.506 3.2311 43.5673 3.06643C43.1918 2.99043 43.0745 2.8891 42.7929 2.33177C42.3705 1.52111 41.5139 0.672447 40.7982 0.317783C40.0237 -0.0495453 38.5687 -0.112881 37.7591 0.203785ZM40.0941 1.39444C40.6808 1.58444 41.5256 2.38244 41.8659 3.06643C42.2179 3.78843 42.2179 5.15642 41.8659 5.86575C40.6808 8.2724 37.6066 8.29773 36.5036 5.90375C35.8583 4.51042 36.2924 2.71177 37.4892 1.81244C38.2402 1.24244 39.1789 1.09045 40.0941 1.39444ZM22.2354 4.40909C24.1597 5.00442 26.3891 6.23308 28.466 7.8544L29.6042 8.74107L27.4569 11.0337C26.2835 12.3004 24.852 13.9597 24.2771 14.7197C22.5522 17.0123 22.916 16.759 20.7687 17.139C18.5158 17.5443 16.0869 18.1523 14.2799 18.7857C13.5407 19.039 12.9306 19.229 12.9071 19.2037C12.778 19.0643 12.5903 16.3157 12.5903 14.6057C12.602 10.5777 13.3999 7.8924 15.1365 6.00508C15.9227 5.14375 16.9435 4.49776 17.9643 4.21909C18.9382 3.95309 21.0738 4.05442 22.2354 4.40909ZM44.3887 4.75109C45.4682 5.29575 46.6063 6.62574 47.2634 8.0824C48.0965 9.95705 48.5072 12.237 48.5189 14.935C48.5189 15.9864 48.3429 18.355 48.2256 18.9377L48.1669 19.2163L47.1344 18.8363C45.1162 18.1017 41.7369 17.253 39.484 16.9237L38.4162 16.7717L37.1138 15.0617C36.398 14.1117 34.8374 12.3004 33.6523 11.0337L31.4933 8.7284L32.3851 8.05707C32.8779 7.68974 33.7227 7.09441 34.2625 6.72707L35.2364 6.06841L35.5884 6.72707C36.0225 7.5504 36.6209 8.14574 37.4892 8.5764C38.029 8.85506 38.2989 8.90573 39.1906 8.90573C40.1059 8.90573 40.3405 8.85506 40.892 8.56373C41.6782 8.14574 42.5582 7.22107 42.8985 6.47374C43.0276 6.16975 43.2036 5.58708 43.274 5.16909C43.3561 4.68776 43.4734 4.40909 43.5673 4.40909C43.6494 4.40909 44.0249 4.56109 44.3887 4.75109ZM32.7723 11.8444C34.6027 13.8204 36.7383 16.417 36.6209 16.5437C36.5857 16.569 35.7409 16.531 34.7201 16.455C32.3968 16.2777 27.7737 16.2777 25.9433 16.455C25.1806 16.5183 24.5352 16.5563 24.5117 16.531C24.3005 16.303 30.1674 9.72906 30.5781 9.72906C30.7072 9.72906 31.6341 10.6284 32.7723 11.8444ZM35.4945 17.7217C37.7826 17.9117 37.5244 17.7723 38.6744 19.5203C40.6339 22.5476 42.6051 26.2083 44.0249 29.4889C44.9519 31.6422 45.0223 31.1609 43.2153 35.0622C41.9011 37.8869 40.364 40.6862 38.6861 43.2828L37.7239 44.7775L36.398 44.9295C33.4528 45.2842 28.0201 45.2462 24.1011 44.8535L23.3149 44.7775L22.5522 43.6248C20.6162 40.6862 18.9148 37.5829 17.2838 33.9602L16.1221 31.4016L16.5445 30.3503C17.6593 27.5889 20.0295 23.067 21.8951 20.1157C23.3384 17.8357 23.1858 17.975 24.3827 17.823C27.0697 17.4683 32.0565 17.4303 35.4945 17.7217ZM21.6253 18.3043C21.6018 18.3677 21.0268 19.3177 20.3463 20.4323C18.774 22.9656 17.6593 25.0683 16.5093 27.6143C16.0165 28.7163 15.5707 29.6156 15.5354 29.6156C15.4416 29.6156 14.4207 26.4489 13.9749 24.739C13.3647 22.421 13.0244 20.635 13.1418 20.5083C13.4703 20.179 17.1782 19.0897 19.83 18.545C21.5548 18.1903 21.6839 18.1777 21.6253 18.3043ZM41.0915 18.5323C43.5321 19.0263 47.545 20.179 47.8501 20.483C47.944 20.5843 47.6037 22.535 47.2165 24.0423C46.841 25.5243 45.5738 29.6156 45.4799 29.6156C45.4447 29.6029 44.9519 28.6023 44.3887 27.3609C43.3092 24.967 41.2558 21.1923 40.0824 19.419C39.4018 18.3803 39.308 18.2157 39.4136 18.2157C39.4488 18.2157 40.1997 18.355 41.0915 18.5323ZM12.074 21.5723C12.3204 23.2823 13.4468 27.3483 14.3855 29.8943C14.6437 30.6036 14.8314 31.3003 14.808 31.4522C14.7728 31.5916 14.4794 32.4782 14.1391 33.4156C13.4586 35.3536 12.649 38.2795 12.2383 40.2935C11.9097 41.9275 12.1092 41.9022 9.73899 40.6355C7.49785 39.4575 7.59172 39.5462 7.932 38.8495C8.33094 38.0642 8.34268 36.1769 7.95546 35.2902C7.12237 33.3396 5.0455 32.2122 3.16811 32.7062C2.33501 32.9216 2.33501 32.9216 2.21767 31.8069C1.84219 28.0323 4.9399 24.2323 10.619 21.4963C11.2878 21.167 11.8863 20.9263 11.9215 20.9517C11.9684 20.977 12.0388 21.2556 12.074 21.5723ZM51.159 21.9396C54.773 23.865 57.0024 25.917 58.1523 28.3743C59.1497 30.5023 59.0089 32.8962 57.7769 35.1382C57.2488 36.0882 55.6178 37.8615 54.4445 38.7609C53.365 39.5842 51.7223 40.5595 50.2321 41.2815C49.6571 41.5475 49.176 41.7755 49.1643 41.7755C49.1408 41.7755 49.0939 41.5855 49.047 41.3575C48.5893 38.9509 47.5216 35.1002 46.6298 32.6176L46.1839 31.3763L46.6885 29.9576C47.6624 27.2343 48.5541 24.0296 48.9883 21.7243C49.0587 21.3316 49.1878 21.0023 49.2582 21.0023C49.3403 21.0023 50.1969 21.4203 51.159 21.9396ZM18.3633 38.7989C18.8326 39.6982 19.7713 41.3449 20.4401 42.4468C21.0972 43.5488 21.6487 44.4608 21.6487 44.4862C21.6487 44.5748 19.0673 44.0302 17.4246 43.5995C15.5824 43.1308 13.0831 42.2948 13.0831 42.1682C13.0831 42.1302 13.1887 41.5602 13.3178 40.9142C13.6463 39.2042 14.3151 36.7595 14.9957 34.7709L15.5824 33.0229L16.5445 35.0876C17.0608 36.2276 17.8822 37.8869 18.3633 38.7989ZM46.0314 34.6442C46.313 35.4676 46.665 36.6202 46.8293 37.2029C47.1344 38.2795 47.9323 41.8389 47.9323 42.1175C47.9323 42.2948 45.9141 43.0042 43.8841 43.5488C42.4995 43.9162 39.4605 44.5622 39.3901 44.4988C39.3666 44.4735 39.9651 43.4728 40.6926 42.2695C42.2766 39.6729 43.5438 37.3042 44.6233 34.9102C45.0575 33.9476 45.4447 33.1622 45.4799 33.1622C45.5151 33.1622 45.7615 33.8336 46.0314 34.6442ZM5.29191 34.1122C5.86686 34.3656 6.52395 35.0749 6.81729 35.7589C7.36878 37.0129 7.0637 38.5709 6.10154 39.4829C5.47965 40.0655 4.9399 40.2809 4.1068 40.2809C2.07687 40.2935 0.621887 38.1149 1.29071 36.0882C1.88913 34.2516 3.66092 33.3776 5.29191 34.1122ZM48.3899 45.9175C48.4603 47.0195 48.5189 47.9821 48.5189 48.0581C48.5189 48.1341 48.3195 48.2355 48.0848 48.2861C46.9114 48.4888 45.7498 49.4388 45.1514 50.6675C44.858 51.2755 44.8228 51.4528 44.8228 52.6688C44.8228 54.2014 44.9988 54.7208 45.8671 55.6834L46.3482 56.2281L45.5972 57.0007C44.3417 58.2801 43.1449 58.6981 40.9976 58.5967C39.3314 58.5081 38.0877 58.1281 36.1399 57.1147C34.6732 56.3548 33.4528 55.5568 32.2677 54.5941C31.8805 54.2774 31.552 54.0114 31.5285 53.9861C31.505 53.9734 32.3733 53.0361 33.4528 51.8961C34.5206 50.7561 35.9639 49.0841 36.6444 48.1721C38.4631 45.7908 38.3693 45.8795 39.2493 45.7782C41.1736 45.5502 45.3743 44.4862 47.4629 43.7008C48.2725 43.3968 48.2373 43.2955 48.3899 45.9175ZM14.3269 44.0428C16.5798 44.7902 19.9239 45.5882 22.0711 45.8922C22.6578 45.9682 22.6813 45.9808 23.6669 47.3235C25.0632 49.2108 27.0345 51.5161 28.3839 52.8588L29.5338 53.9861L29.1935 54.2901C28.4777 54.9361 26.2249 56.4688 25.1806 57.0261C20.8156 59.3947 17.3424 59.2301 15.0074 56.5574C13.1183 54.4041 12.2617 50.6675 12.602 46.0442C12.7546 43.8782 12.8132 43.5108 13.0244 43.5995C13.0948 43.6248 13.6815 43.8275 14.3269 44.0428ZM27.6329 46.3482C30.1439 46.4875 34.0747 46.4495 35.9052 46.2468L36.7148 46.1708L35.9639 47.1715C34.99 48.4635 30.7541 53.0488 30.5311 53.0488C30.1791 53.0488 25.5091 47.8681 24.5587 46.4242L24.3123 46.0568L24.6526 46.1328C24.8403 46.1708 26.1779 46.2722 27.6329 46.3482ZM50.103 49.8061C50.8774 50.1861 51.511 50.9588 51.734 51.7948C51.9687 52.6181 51.9687 52.8461 51.7457 53.6314C51.159 55.7721 48.7302 56.6461 47.0874 55.2908C46.0314 54.4168 45.6325 52.7194 46.1839 51.4021C46.8762 49.7555 48.6128 49.0461 50.103 49.8061Z" fill="#FFCE00"/>
<path d="M28.5772 23.1048C26.1718 23.7761 24.001 25.8661 23.1445 28.3488C21.7247 32.4021 23.4026 37.0254 26.9579 38.9254C29.2929 40.1667 31.6397 40.192 33.916 39.014C35.6409 38.102 36.8025 36.8607 37.6121 34.9987C38.3396 33.3267 38.5508 31.8574 38.3162 30.1854C37.8351 26.7401 35.5001 23.9408 32.3906 23.0921C31.5106 22.8515 29.4455 22.8515 28.5772 23.1048ZM32.2146 24.3588C34.4323 24.9921 36.2393 26.8794 36.9316 29.2988C37.2953 30.5654 37.2953 32.2627 36.9198 33.5167C36.1806 35.9614 34.4088 37.7347 32.0856 38.368C28.7532 39.28 25.3035 37.228 24.1536 33.6561C23.7781 32.4654 23.7311 30.6034 24.048 29.4254C24.705 27.0188 26.5707 25.0048 28.7649 24.3588C29.5393 24.1308 31.4167 24.1308 32.2146 24.3588Z" fill="#FFCE00"/>
<path d="M27.063 25.9801C24.9158 26.8667 24.8336 30.1094 26.9457 31.0594C28.6119 31.8194 30.4424 30.464 30.4424 28.4754C30.4424 27.9941 30.0786 27.0441 29.7618 26.6641C29.2221 26.0054 27.8375 25.6634 27.063 25.9801ZM28.5063 27.2847C28.9052 27.4874 29.269 28.1081 29.269 28.6021C29.269 28.9694 28.9639 29.5647 28.6588 29.7927C28.2247 30.122 27.4503 30.0587 27.0396 29.6407C26.3356 28.9694 26.4881 27.6521 27.3095 27.2721C27.8023 27.0314 28.0369 27.0441 28.5063 27.2847Z" fill="#FFCE00"/>
</svg>
