<svg width="1237" height="745" viewBox="0 0 1237 745" fill="none" xmlns="http://www.w3.org/2000/svg">
<path d="M626.453 920.591C681.529 833.56 713.154 728.748 743.718 627.518C763.11 563.207 783.19 496.706 809.037 435.575C838.011 367.096 871.396 312.651 911.109 269.106C983.699 189.448 1085.66 151.333 1184.26 114.618C1288.73 75.638 1396.69 35.3419 1469.91 -54.5273C1504.43 -96.8422 1531.86 -148.923 1553.82 -213.682C1574.66 -275.131 1587.85 -340.138 1598.01 -395.635C1602.6 -420.645 1606.96 -446.195 1611.15 -470.801C1615.27 -494.931 1619.52 -519.898 1624 -544.325L1624.2 -545.379L1620.99 -547.184L1620.69 -545.63C1616.74 -523.372 1612.97 -500.813 1609.27 -478.759C1594.24 -388.978 1578.69 -296.128 1550.07 -213.55C1536.4 -172.725 1518.12 -133.85 1495.63 -97.7905C1472.77 -61.3338 1444.33 -29.2768 1411.52 -2.97007C1345.17 50.2201 1263.07 80.4671 1183.69 109.694C1163.4 117.121 1142.6 124.84 1122.36 132.767C1082.42 148.423 1030.7 170.282 984.802 200.472C941.023 229.27 902.764 266.755 872.076 310.921C808.095 402.385 774.127 515.095 741.221 624.079C706.371 739.428 670.335 858.738 598.751 952.753C566.172 995.492 525.72 1030.56 479.926 1055.76C432.252 1081.75 380.481 1097.98 327.264 1103.62C245.382 1112.93 157.093 1101.72 71.62 1071.1L70.8541 1073.42L81.7655 1079.51C103.826 1086.98 126.235 1093.22 148.9 1098.19C228.343 1115.63 306.823 1116.24 379.031 1099.58C481.797 1076.03 567.336 1014.11 626.453 920.591Z" fill="#CCCCCC"/>
<path d="M624.882 957.623C680.579 869.457 712.54 763.591 743.461 661.196C763.105 596.131 783.4 528.925 809.571 467.086C838.963 397.831 872.635 342.726 912.791 298.7C986.197 218.152 1089.31 179.654 1189.03 142.55C1294.67 103.132 1403.8 62.3415 1477.96 -28.5339C1512.87 -71.3136 1540.63 -123.987 1562.84 -189.5C1583.9 -251.653 1597.26 -317.404 1607.54 -373.539C1612.17 -398.799 1616.58 -424.687 1620.84 -449.71C1625.77 -478.517 1630.83 -508.224 1636.33 -537.456L1636.52 -538.483L1633.21 -540.337L1632.91 -538.783C1628.05 -512.014 1623.42 -484.411 1618.95 -457.728C1603.75 -366.943 1588.03 -273.033 1559.1 -189.513C1545.27 -148.228 1526.78 -108.912 1504.05 -72.4396C1480.92 -35.5747 1452.15 -3.16084 1418.96 23.4368C1351.85 77.2397 1268.81 107.832 1188.5 137.432C1168.19 144.97 1146.96 152.709 1126.51 160.735C1086.13 176.556 1033.82 198.662 987.373 229.221C943.08 258.326 904.368 296.222 873.311 340.88C808.651 433.64 774.248 547.498 740.949 657.696C705.732 774.266 669.285 895.017 596.873 990.123C563.889 1033.36 522.929 1068.82 476.562 1094.28C428.354 1120.58 375.996 1137 322.174 1142.71C280.856 1147.26 239.2 1146.99 197.937 1141.91L191.798 1141.17L202.782 1147.31L202.937 1147.34C260.243 1154.22 318.204 1151.34 374.67 1138.8C478.572 1114.81 565.108 1052.18 624.882 957.623Z" fill="#CCCCCC"/>
<path d="M1630.44 -428.407C1636.18 -462.01 1642.11 -496.727 1648.63 -530.62L1648.82 -531.591L1645.43 -533.49L1645.14 -531.936C1639.15 -500.585 1633.81 -467.936 1628.57 -436.681C1613.2 -344.863 1597.3 -249.866 1568.03 -165.436C1554.04 -123.682 1535.34 -83.9173 1512.36 -47.0277C1489 -9.75322 1459.96 23.0384 1426.46 49.9722C1358.54 104.438 1274.53 135.336 1193.3 165.254C1172.68 172.868 1151.34 180.729 1130.69 188.826C1089.9 204.817 1036.99 227.137 989.979 258.066C945.2 287.512 906.066 325.845 874.675 371.012C809.296 464.713 774.468 579.952 740.743 691.386C705.09 809.393 668.245 931.387 595.036 1027.56C561.713 1071.28 520.327 1107.15 473.472 1132.92C424.72 1159.51 371.768 1176.12 317.336 1181.89C303.311 1183.49 288.91 1184.52 274.548 1184.92L270.047 1185.06L278.364 1189.78L278.571 1189.82C309.387 1188.78 340.056 1184.81 370.216 1177.95C475.346 1153.74 562.874 1090.43 623.31 994.801C679.654 905.649 711.977 798.59 743.229 695.025C763.057 629.278 783.589 561.257 810.063 498.675C839.609 428.615 873.853 372.914 914.456 328.379C988.711 246.918 1092.98 208.009 1193.85 170.378C1300.66 130.493 1411.11 89.2704 1486.01 -2.51238C1512.83 -35.9089 1535.03 -73.2668 1551.93 -113.439L1573.1 -169.122C1593.67 -230.833 1606.84 -295.902 1617.04 -351.421C1621.67 -377.086 1626.13 -403.163 1630.44 -428.407Z" fill="#CCCCCC"/>
<path d="M1433.62 76.5504C1364.98 131.551 1280.06 162.856 1197.95 193.103C1177.05 200.799 1155.48 208.753 1134.56 216.966C1093.25 233.16 1039.78 255.732 992.291 286.903C947.032 316.668 907.474 355.407 875.733 401.049C809.615 495.801 774.408 612.316 740.394 724.987C704.337 844.263 667.112 967.677 593.029 1064.9C529.829 1147.89 440.098 1200.86 333.506 1218.04L329.946 1218.62L336.884 1222.52L337.143 1222.57C346.72 1220.98 356.355 1219.07 365.742 1216.91C472.028 1192.44 560.528 1128.42 621.626 1031.72C678.59 941.579 711.276 833.328 742.88 728.626C762.959 662.125 783.712 593.372 810.422 530.119C840.38 459.311 874.907 402.978 916.061 357.957C991.086 275.567 1096.57 236.231 1198.55 198.177C1306.56 157.865 1418.24 116.332 1494 23.2923C1497.8 18.6343 1501.66 13.6434 1505.51 8.47459L1505.54 8.30809L1511.73 -8.02411L1507.42 -1.94671C1486.31 27.7444 1461.48 54.1606 1433.62 76.5504Z" fill="#CCCCCC"/>
<path d="M1441.05 102.985C1371.65 158.599 1285.74 190.294 1202.71 220.831C1181.64 228.603 1159.84 236.623 1138.82 244.929C1097.07 261.288 1043.01 284.135 994.986 315.709C949.145 345.831 909.089 385.063 876.967 431.297C810.166 527.085 774.555 644.869 740.142 758.783C703.639 879.406 666.026 1004.15 591.171 1102.45C538.611 1171.5 466.139 1220.89 381.924 1245.39L379.062 1246.26L385.396 1249.79L385.654 1249.85C482.195 1221.5 563.268 1158.96 620.122 1068.97C677.732 977.843 710.786 868.372 742.715 762.528C763.016 695.294 783.999 625.754 811.049 561.852C841.321 490.247 876.234 433.304 917.757 387.757C993.651 304.488 1100.27 264.708 1203.35 226.232C1302.95 189.072 1405.92 150.657 1481.02 73.055L1481.22 72.8671L1485.56 61.4468L1482.18 65.0128C1469.34 78.7104 1455.59 91.4006 1441.05 102.985Z" fill="#CCCCCC"/>
<path d="M1448.42 129.492C1378.39 185.719 1291.43 217.648 1207.6 248.586C1186.35 256.408 1164.17 264.603 1142.78 272.858C1100.6 289.409 1045.95 312.475 997.375 344.418C951.101 374.838 910.663 414.446 878.228 461.118C810.661 557.952 774.698 677.017 739.928 792.095C703.16 914.106 665.003 1040.15 589.325 1139.51C545.326 1197.28 487.97 1241.66 422.981 1268.22L420.491 1269.26L426.262 1272.49L426.615 1272.34C465.612 1255.78 502.012 1232.91 534.545 1204.52C566.889 1176.12 595.187 1142.81 618.542 1105.63C676.747 1013.5 710.157 902.865 742.366 795.839C762.887 727.874 784.097 657.574 811.445 592.957C842.057 520.559 877.376 462.896 919.326 416.952C996.094 332.632 1103.85 292.552 1208.06 253.659C1296.98 220.485 1388.92 186.182 1461.11 124.705L1461.36 124.501L1464.78 115.481L1461.9 118.028C1457.71 121.878 1453.16 125.705 1448.42 129.492Z" fill="#CCCCCC"/>
<path d="M1212.32 276.391C1190.75 284.344 1168.45 292.572 1146.84 301.037C1104.23 317.697 1048.95 341.088 999.884 373.356C953.103 404.159 912.22 444.235 879.42 491.443C811.166 589.196 774.804 709.504 739.613 826.079C702.395 949.321 663.884 1076.79 587.426 1177.13C552.12 1223.43 508.167 1261.3 458.396 1288.28L456.288 1289.44L461.45 1292.33L461.844 1292.1C523.922 1257.49 576.056 1207.33 616.852 1142.72C675.709 1049.58 709.456 937.747 742.099 829.574C762.841 760.876 784.297 689.849 811.912 624.54C842.864 551.349 878.528 493.155 920.967 446.624C998.531 361.525 1107.47 320.895 1212.82 281.558C1292.65 251.767 1375.32 220.978 1443.48 171.018L1443.76 170.82L1446.74 163.003L1444.13 164.945C1375.57 216.264 1292.57 246.834 1212.32 276.391Z" fill="#CCCCCC"/>
<path d="M1217.09 304.207C1195.29 312.226 1172.77 320.492 1150.91 329.105C1107.83 345.979 1052.01 369.567 1002.39 402.178C955.135 433.283 913.832 473.746 880.681 521.408C811.666 620.323 774.915 741.962 739.383 859.619C701.723 984.325 662.845 1113.01 585.543 1214.53C558.322 1250.32 525.92 1281.19 489.574 1305.97L487.772 1307.22L492.447 1309.84L492.858 1309.52C541.401 1275.59 583.053 1231.49 615.312 1179.87C674.784 1085.77 708.893 972.746 741.889 863.436C762.856 793.979 784.538 722.192 812.451 656.168C843.759 582.101 879.766 523.52 922.674 476.369C1001.08 390.386 1111.16 349.311 1217.61 309.552C1289.32 282.804 1363.49 255.123 1427.23 213.933L1427.54 213.713L1430.26 206.561L1427.82 208.166C1363.71 250.197 1289.17 277.654 1217.09 304.207Z" fill="#CCCCCC"/>
<path d="M1221.81 332.011C1199.8 340.13 1177.05 348.517 1155.02 357.179C1111.46 374.24 1055.05 398.075 1004.94 431.038C957.182 462.446 915.436 503.312 881.926 551.457C812.196 651.429 775.067 774.344 739.162 893.249C701.14 1019.15 661.816 1149.33 583.691 1251.91C564.049 1277.7 541.715 1300.99 517.126 1321.33L515.587 1322.61L519.876 1324.99L520.322 1324.63C556.507 1294.11 588.013 1257.7 613.695 1216.72C673.813 1121.64 708.284 1007.42 741.637 896.943C762.794 826.776 784.702 754.229 812.939 687.496C844.535 612.769 880.975 553.329 924.309 505.781C1003.54 418.879 1114.8 377.372 1222.38 337.224C1286.57 313.277 1352.97 288.513 1411.78 254.364L1412.14 254.155L1414.7 247.403L1412.39 248.747C1353.14 283.637 1286.38 308.233 1221.81 332.011Z" fill="#CCCCCC"/>
<path d="M1226.64 359.811C1204.41 367.994 1181.39 376.469 1159.07 385.213C1115.08 402.466 1058.07 426.632 1007.36 459.842C959.104 491.587 916.925 532.899 883.078 581.571C812.588 682.561 775.076 806.779 738.803 926.904C700.366 1054.13 660.648 1185.67 581.7 1289.31C569.315 1305.59 555.855 1320.89 541.423 1335.1L540.123 1336.41L544.163 1338.68L544.631 1338.2C570.068 1312.93 592.713 1284.6 612.12 1253.78C672.838 1157.67 707.672 1042.26 741.35 930.643C762.754 859.75 784.887 786.444 813.418 719.023C845.353 643.504 882.185 583.427 925.961 535.398C1006.01 447.578 1118.44 405.632 1227.15 365.067C1284.28 343.763 1343.24 321.701 1396.96 293.287L1397.35 293.083L1399.8 286.597L1397.58 287.786C1343.57 316.742 1284.14 338.586 1226.64 359.811Z" fill="#CCCCCC"/>
<path d="M1231.37 387.704C1208.9 395.981 1185.65 404.549 1163.13 413.392C1115.87 431.924 1060.77 455.382 1009.89 488.814C961.14 520.886 918.531 562.624 884.342 611.797C813.144 713.817 775.222 839.332 738.587 960.65C699.788 1089.07 659.737 1221.92 579.863 1326.75C574.572 1333.71 568.934 1340.65 563.152 1347.36L562.038 1348.68L565.98 1350.9L566.495 1350.32C582.576 1331.7 597.313 1311.81 610.58 1290.79C671.938 1193.72 707.135 1077.12 741.171 964.339C762.795 892.713 785.154 818.647 813.951 750.534C846.227 674.222 883.444 613.536 927.534 564.997C1008.43 476.265 1122.02 433.881 1231.87 392.872C1282.22 374.067 1334.31 354.66 1382.54 330.996L1382.93 330.792L1385.35 324.472L1383.37 325.684C1334.59 349.662 1282.13 368.901 1231.37 387.704Z" fill="#CCCCCC"/>
<path d="M1236.16 415.409C1213.43 423.774 1189.97 432.441 1167.22 441.35C1122.27 458.97 1064.08 483.541 1012.52 517.547C963.266 549.941 920.219 592.104 885.681 641.779C813.665 744.834 775.386 871.514 738.248 994.195C699.774 1121.61 659.945 1253.45 582.313 1358.24L581.365 1359.54L585.457 1361.83L585.962 1361.16C593.895 1350.53 601.643 1339.31 608.905 1327.8C670.89 1229.72 706.449 1111.92 740.836 998.001C762.733 925.655 785.266 850.818 814.413 782C847.024 704.924 884.601 643.623 929.298 594.582C1011.09 504.977 1125.76 462.136 1236.74 420.711C1280.62 404.329 1325.97 387.433 1368.63 367.863L1369.04 367.665L1371.42 361.422L1369.33 362.379C1326.18 382.246 1280.4 399.107 1236.16 415.409Z" fill="#CCCCCC"/>
<path d="M1240.99 443.181C1218.03 451.639 1194.29 460.388 1171.3 469.39C1125.94 487.181 1067.16 512.026 1014.94 546.351C965.196 579.077 921.712 621.662 886.816 671.832C814.164 775.962 775.485 904.028 737.995 1027.85C702.405 1145.66 665.623 1267.47 599.661 1368.04L598.822 1369.33L602.939 1371.62L603.435 1370.86C604.654 1368.99 605.947 1367.02 607.287 1364.8C669.876 1265.8 705.808 1146.76 740.527 1031.67C762.588 958.462 785.404 882.993 814.818 813.483C847.742 735.608 885.705 673.698 930.845 624.176C1013.39 533.608 1129.32 490.352 1241.4 448.532C1278.95 434.519 1317.78 420.034 1354.77 404.047L1355.18 403.877L1357.55 397.662L1355.49 398.568C1318.17 414.743 1278.94 429.198 1240.99 443.181Z" fill="#CCCCCC"/>
<path d="M1245.85 470.959C1222.66 479.51 1198.63 488.34 1175.38 497.458C1129.55 515.407 1070.14 540.461 1017.45 575.172C967.236 608.257 923.35 651.281 888.128 701.953C814.741 807.25 775.684 936.448 737.925 1061.54C705.25 1169.73 671.446 1281.58 615.708 1377.02L614.982 1378.28L618.67 1380.57L619.155 1379.72C674.162 1284.58 707.793 1173.21 740.295 1065.5C762.483 991.625 785.624 915.302 815.331 845.105C848.595 766.437 886.949 703.891 932.505 654.026C1015.91 562.49 1133 518.823 1246.23 476.62C1277.58 464.887 1310.07 452.799 1341.24 439.871L1341.65 439.701L1344.03 433.459L1342.01 434.287C1310.45 447.13 1277.63 459.261 1245.85 470.959Z" fill="#CCCCCC"/>
<path d="M1250.61 498.714C1227.15 507.353 1202.89 516.304 1179.4 525.515C1130.26 544.731 1072.73 569.216 1019.95 604.022C969.195 637.397 924.84 680.843 889.26 732.034C815.087 838.2 775.704 968.829 737.545 1095.16C707.78 1193.76 676.959 1295.77 629.926 1385.15L629.289 1386.37L633.138 1388.51L633.613 1387.58C679.919 1298.62 710.557 1197.15 740.139 1099.08C762.645 1024.53 785.939 947.401 815.914 876.511C849.497 797.162 888.232 733.89 934.287 683.383C1018.49 591.013 1136.75 546.879 1251.12 504.204C1276.43 494.757 1302.58 485.004 1327.97 474.825L1328.41 474.661L1330.79 468.391L1328.81 469.17C1302.96 479.452 1276.38 489.253 1250.61 498.714Z" fill="#CCCCCC"/>
<path d="M1255.08 526.667C1231.51 535.366 1207.14 544.267 1183.54 553.539C1136.91 571.89 1076.27 597.454 1022.49 632.793C971.249 666.505 926.467 710.376 890.536 762.06C815.701 869.295 775.856 1001.21 737.325 1128.79C710.438 1217.82 682.622 1309.88 643.198 1392.57L642.624 1393.75L646.349 1395.84L646.808 1394.84C685.64 1312.57 713.257 1221.13 739.97 1132.72C762.703 1057.41 786.217 979.55 816.516 907.95C850.424 827.747 889.529 763.949 936.031 712.934C1021.09 619.651 1140.48 575.101 1255.95 532.003C1275.3 524.688 1295.27 517.338 1314.78 509.768L1315.21 509.604L1317.64 503.256L1315.63 504.002C1295.47 511.774 1274.94 519.349 1255.08 526.667Z" fill="#CCCCCC"/>
<path d="M1259.97 554.423C1236.11 563.204 1211.47 572.276 1187.61 581.663C1140.38 600.199 1079.26 625.978 1024.99 661.587C973.248 695.632 928.018 739.934 891.723 792.125C816.18 900.389 775.957 1033.58 737.032 1162.37C713.044 1241.86 688.216 1324.06 655.344 1399.4L654.847 1400.59L658.474 1402.63L658.944 1401.58C691.271 1326.7 715.754 1245.18 739.666 1166.36C762.593 1090.46 786.308 1011.83 816.925 939.405C851.251 858.427 890.664 794.002 937.64 742.484C1023.46 648.472 1144.02 603.4 1260.49 559.885C1273.91 554.852 1287.78 549.687 1301.38 544.522L1301.81 544.357L1304.28 537.904L1302.31 538.656C1288.3 543.991 1273.89 549.298 1259.97 554.423Z" fill="#CCCCCC"/>
<path d="M1264.69 582.227C1240.65 591.113 1215.75 600.389 1191.69 609.703C1144.03 628.376 1082.32 654.429 1027.48 690.519C975.255 724.848 929.606 769.529 892.968 822.173C816.684 931.489 776.057 1065.95 736.785 1196C715.665 1265.97 693.8 1338.29 666.683 1405.79L666.223 1406.94L669.818 1409.14L670.247 1408.02C696.932 1341.09 718.525 1269.49 739.559 1200.25C762.706 1123.46 786.673 1044.08 817.557 971.11C852.042 889.3 892.027 824.279 939.398 772.385C1026.09 677.321 1147.8 631.894 1265.51 587.957L1288.5 579.361L1288.94 579.196L1291.42 572.66L1289.45 573.384L1264.69 582.227Z" fill="#CCCCCC"/>
<path d="M1195.74 637.765C1147.64 656.631 1085.32 682.898 1029.98 719.341C977.214 754.009 931.092 799.147 894.084 852.337C817.076 962.621 776.055 1098.44 736.41 1229.74C718.132 1290.19 699.276 1352.68 677.119 1411.84L676.69 1412.96L680.198 1414.92L680.632 1413.77C702.377 1355.21 721.008 1293.48 739.039 1233.75C762.433 1156.24 786.621 1076.13 817.803 1002.44C852.725 919.89 892.978 854.176 940.807 801.717C1028.32 705.708 1151.17 659.836 1270.14 615.512L1275.63 613.478L1278.17 606.809L1270.81 609.5C1246.1 618.644 1220.51 628.144 1195.74 637.765Z" fill="#CCCCCC"/>
<path d="M1199.84 665.839C1151.27 684.864 1088.39 711.439 1032.53 748.173C979.288 783.185 932.753 828.762 895.421 882.464C817.689 993.861 776.295 1130.93 736.256 1263.44C720.872 1314.38 704.968 1367.05 687.235 1417.45L686.867 1418.67L690.323 1420.61L690.743 1419.4C708.142 1369.63 723.815 1317.74 738.947 1267.55C762.562 1189.31 786.98 1108.41 818.559 1034.06C853.821 950.715 894.423 884.441 942.763 831.43C981.191 789.251 1029.47 753.224 1090.3 721.312C1143.89 693.187 1202.22 670.727 1262.27 648.271L1262.74 648.084L1265.33 641.282L1263.36 642.005C1242.87 649.387 1221.26 657.418 1199.84 665.839Z" fill="#CCCCCC"/>
<path d="M1203.89 693.874C1151.81 714.236 1091.02 740.144 1035.01 776.989C981.287 812.358 934.338 858.383 896.676 912.601C818.204 1025.05 776.411 1163.36 736.025 1297.12C723.504 1338.57 710.546 1381.46 696.709 1422.88L696.337 1423.98L699.773 1425.89L700.171 1424.65C713.71 1383.95 726.405 1341.87 738.67 1301.2C762.505 1222.23 787.144 1140.6 818.918 1065.5C854.489 981.388 895.508 914.483 944.212 860.974C1025.51 771.866 1134.76 725.784 1248.95 682.752L1249.39 682.588L1252.04 675.624L1250.09 676.354C1232.03 683.025 1217.32 688.613 1203.89 693.874Z" fill="#CCCCCC"/>
<path d="M1207.99 721.975C1113.89 758.84 1067.46 786.167 1037.52 805.955C983.283 841.62 935.889 888.049 897.873 942.754C818.667 1056.23 776.49 1195.84 735.701 1330.87C726.067 1362.84 716.057 1395.94 705.75 1428.05L705.408 1429.13L708.818 1431.03L709.222 1429.76C719.231 1398.37 728.969 1366.14 738.366 1334.98C762.422 1255.28 787.292 1172.86 819.358 1097.08C855.27 1012.17 896.68 944.631 945.893 890.713C981.693 851.426 1025.5 817.626 1079.82 787.377C1131.4 758.636 1187.65 735.894 1235.81 717.562L1236.27 717.403L1238.94 710.329L1237 711.058C1226.25 714.855 1216.73 718.519 1207.99 721.975Z" fill="#CCCCCC"/>
</svg>
