<svg width="375" height="653" viewBox="0 0 375 653" fill="none" xmlns="http://www.w3.org/2000/svg">
<path d="M85.2468 244.805C129.28 224.869 168.7 191.914 206.78 160.091C230.962 139.867 255.979 118.962 281.873 101.649C310.888 82.2608 338.015 69.5131 364.814 62.6717C413.816 50.1413 463.63 61.4752 511.762 72.4902C562.783 84.1317 615.51 96.1556 667.39 79.7826C691.836 72.0847 716.019 58.7308 741.324 38.9926C765.336 20.2647 787.266 -1.83048 805.557 -20.9764C813.802 -29.6031 822.1 -38.4983 830.084 -47.07C837.919 -55.471 846.023 -64.1664 854.075 -72.5932L854.425 -72.9548L853.63 -74.4907L853.113 -73.9578C845.826 -66.2471 838.533 -58.3707 831.398 -50.6745C802.359 -19.339 772.331 13.07 739.821 38.079C723.935 50.5652 706.744 61.0992 688.631 69.4459C670.267 77.8507 650.852 83.0935 631.203 84.9535C591.47 88.7113 551.472 79.4102 512.808 70.4124C502.938 68.0964 492.791 65.7624 482.807 63.6528C463.107 59.4977 437.189 54.7394 411.407 54.7494C386.814 54.7589 362.147 59.5989 338.728 69.0102C290.059 88.3896 247.684 123.838 206.687 158.098C163.287 194.355 118.4 231.858 66.092 250.278C42.2986 258.643 17.3944 261.969 -7.06211 260.049C-32.4569 257.952 -56.9441 250.972 -79.2695 239.467C-113.783 222.012 -145.52 194.859 -171.149 160.819L-172.047 161.53L-169.339 166.734C-162.613 175.35 -155.431 183.57 -147.823 191.361C-121.162 218.68 -90.5407 239.149 -57.9253 251.226C-11.5531 268.482 37.9571 266.243 85.2468 244.805Z" fill="#CCCCCC"/>
<path d="M75.0851 258.924C119.655 238.702 159.478 205.421 197.998 173.233C222.474 152.778 247.756 131.652 273.96 114.145C303.339 94.5602 330.749 81.628 357.845 74.7119C407.397 62.0429 457.761 73.5233 506.435 84.6759C558.024 96.4449 611.339 108.577 663.85 92.0536C688.566 84.2727 713.031 70.7711 738.629 50.8021C762.907 31.8535 785.095 9.51026 803.598 -9.8545C811.926 -18.5668 820.326 -27.5851 828.448 -36.2995C837.808 -46.326 847.446 -56.6747 857.138 -66.7217L857.48 -67.0738L856.659 -68.6548L856.142 -68.1219C847.333 -58.8779 838.405 -49.2435 829.773 -39.932C800.41 -8.24507 770.04 24.5344 737.163 49.832C721.098 62.4589 703.714 73.1137 685.399 81.5591C666.824 90.0542 647.186 95.3513 627.313 97.2274C587.123 101.029 546.672 91.6236 507.545 82.5315C497.638 80.2536 487.315 77.8153 477.225 75.6909C457.311 71.488 431.1 66.6756 405.005 66.6872C380.131 66.6848 355.181 71.569 331.489 81.0781C282.22 100.791 239.38 136.577 197.915 171.212C154.056 207.853 108.637 245.816 55.723 264.45C31.6416 272.906 6.43675 276.256 -18.3099 274.288C-43.9949 272.175 -68.7626 265.121 -91.3426 253.486C-108.721 244.622 -124.989 233.779 -139.861 221.149L-142.077 219.276L-139.353 224.515L-139.301 224.569C-118.598 242.038 -95.1238 255.847 -69.7462 265.484C-22.814 282.859 27.2694 280.6 75.0851 258.924Z" fill="#CCCCCC"/>
<path d="M826.722 -25.4708C837.635 -37.1696 848.908 -49.2579 860.203 -60.8687L860.526 -61.2017L859.688 -62.8189L859.171 -62.286C848.743 -51.5328 838.232 -40.1055 828.121 -29.1978C798.425 2.85014 767.704 36.0097 734.462 61.5774C718.211 74.3468 700.629 85.1226 682.105 93.6653C663.338 102.264 643.496 107.639 623.413 109.566C582.738 113.421 541.826 103.885 502.255 94.6792C492.206 92.3511 481.811 89.9337 471.623 87.7851C451.505 83.5433 425.001 78.6583 398.592 78.6715C373.44 78.6775 348.211 83.6244 324.257 93.2472C274.464 113.144 231.1 149.362 189.151 184.373C144.75 221.464 98.8545 259.811 45.3529 278.659C21.0135 287.218 -4.46349 290.618 -29.4806 288.645C-55.4566 286.51 -80.5044 279.374 -103.338 267.604C-109.252 264.618 -115.165 261.31 -120.902 257.765L-122.703 256.66L-120.657 260.654L-120.587 260.725C-108.233 268.259 -95.1801 274.605 -81.5834 279.689C-34.1122 297.293 16.535 295.024 64.8858 273.099C109.963 252.658 150.236 219.002 189.188 186.441C213.911 165.766 239.497 144.381 266.011 126.661C295.657 106.8 323.445 93.7811 350.849 86.7809C400.968 73.9726 451.892 85.59 501.153 96.8326C553.321 108.72 607.265 121.023 660.3 104.334C679.425 98.1483 697.761 89.2192 714.745 77.8206L737.4 61.4389C761.373 42.5376 783.313 20.4145 801.621 1.26803C810.053 -7.60424 818.526 -16.6803 826.722 -25.4708Z" fill="#CCCCCC"/>
<path d="M619.372 121.836C578.276 125.715 536.9 116.103 496.903 106.802C486.721 104.432 476.211 101.991 465.889 99.8197C445.513 95.5224 418.724 90.592 392.066 90.5772C366.643 90.5847 341.144 95.5814 316.93 105.3C266.576 125.418 222.735 162.039 180.353 197.46C135.467 234.945 89.0561 273.752 34.9406 292.787C-11.2379 309.045 -60.0837 306.69 -106.317 285.953L-107.862 285.262L-106.144 288.577L-106.057 288.666C-101.89 290.509 -97.6205 292.246 -93.3822 293.819C-45.389 311.617 5.82264 309.319 54.7087 287.145C100.285 266.475 141.007 232.445 180.39 199.528C205.406 178.623 231.267 157.008 258.047 139.085C288.048 119.037 316.109 105.844 343.854 98.7947C394.515 85.8206 446.025 97.5831 495.828 108.945C548.582 120.977 603.084 133.473 656.78 116.513C659.471 115.665 662.273 114.704 665.113 113.668L665.168 113.61L671.806 108.801L668.548 110.072C652.617 116.277 636.068 120.236 619.372 121.836Z" fill="#CCCCCC"/>
<path d="M615.473 134.12C573.92 138.042 532.056 128.327 491.623 118.903C481.353 116.518 470.736 114.044 460.351 111.884C439.762 107.539 412.67 102.564 385.698 102.569C359.955 102.567 334.133 107.628 309.618 117.481C258.728 137.83 214.402 174.844 171.543 210.65C126.135 248.548 79.2285 287.777 24.5339 307.034C-13.8792 320.568 -55.0326 321.257 -94.3745 309.156L-95.7226 308.761L-94.1483 311.779L-94.0615 311.868C-48.8917 325.634 -0.977292 322.006 44.5174 301.367C90.601 280.477 131.782 246.063 171.587 212.782C196.879 191.646 223.033 169.782 250.113 151.693C280.443 131.413 308.813 118.079 336.838 110.92C388.067 97.8246 440.136 109.706 490.482 121.187C539.121 132.285 589.405 143.759 638.865 132.684L638.99 132.662L643.635 129.301L641.392 129.829C632.824 131.89 624.162 133.324 615.473 134.12Z" fill="#CCCCCC"/>
<path d="M611.529 146.414C569.571 150.414 527.238 140.523 486.387 131.049C476.036 128.639 465.224 126.135 454.708 123.86C433.896 119.477 406.52 114.438 379.235 114.445C353.246 114.447 327.177 119.558 302.426 129.502C250.966 150.063 206.172 187.489 162.872 223.659C117.002 262.034 69.5487 301.631 14.2576 321.092C-17.8886 332.407 -51.8227 335.028 -84.1578 328.694L-85.4033 328.461L-83.9733 331.217L-83.7954 331.248C-64.2329 334.806 -44.0614 335.218 -23.984 332.468C-3.97952 329.669 15.7065 323.896 34.4494 315.335C81.0232 294.207 122.644 259.429 162.864 225.757C188.431 204.391 214.87 182.286 242.251 163.994C272.918 143.49 301.633 129.98 329.928 122.774C381.771 109.492 434.363 121.548 485.259 133.157C528.683 143.066 573.582 153.31 617.741 147.808L617.894 147.794L621.56 145.138L619.772 145.393C617.138 145.824 614.364 146.15 611.529 146.414Z" fill="#CCCCCC"/>
<path d="M481.07 143.17C470.56 140.729 459.694 138.209 449.035 135.957C428.028 131.507 400.322 126.433 372.759 126.441C346.473 126.463 320.109 131.642 295.076 141.702C243.111 162.447 197.839 200.258 153.989 236.907C107.625 275.647 59.6654 315.713 3.81406 335.359C-21.9674 344.417 -48.9644 347.937 -75.44 345.691L-76.5645 345.601L-75.2869 348.068L-75.0726 348.078C-41.8035 350.504 -8.42926 344.272 24.2253 329.447C71.3158 308.09 113.377 272.928 154.063 238.918C179.905 217.322 206.628 194.996 234.293 176.501C265.298 155.774 294.285 142.144 322.923 134.834C375.278 121.452 428.476 133.597 479.933 145.325C518.923 154.219 559.28 163.453 598.89 161.428L599.051 161.423L602.232 159.124L600.709 159.213C560.594 161.669 520.162 152.264 481.07 143.17Z" fill="#CCCCCC"/>
<path d="M475.771 155.309C465.154 152.835 454.191 150.272 443.398 148.016C422.151 143.528 394.178 138.39 366.312 138.389C339.762 138.409 313.134 143.632 287.847 153.779C235.283 174.784 189.516 213.016 145.253 250.001C98.3388 289.203 49.9204 329.652 -6.56427 349.541C-26.4657 356.561 -47.1309 360.316 -67.7713 360.664L-68.8008 360.69L-67.6416 362.922L-67.3995 362.904C-39.6157 362.11 -11.9137 355.552 14.0439 343.622C61.624 322.046 104.135 286.51 145.252 252.144C171.379 230.308 198.386 207.743 226.352 189.044C257.722 168.066 286.944 154.372 315.925 146.94C368.839 133.428 422.597 145.692 474.596 157.539C509.613 165.532 545.84 173.795 581.454 174.07L581.633 174.064L584.541 171.959L583.172 171.96C547.193 171.918 510.882 163.474 475.771 155.309Z" fill="#CCCCCC"/>
<path d="M470.455 167.43C459.731 164.941 448.643 162.364 437.77 160.083C416.292 155.548 388.025 150.356 359.873 150.365C333.048 150.374 306.142 155.641 280.59 165.885C227.473 187.12 181.229 225.755 136.498 263.134C89.1345 302.709 40.1565 343.628 -16.9247 363.722C-31.2762 368.774 -46.0391 372.152 -60.9243 373.789L-61.8579 373.895L-60.7913 375.937L-60.5221 375.909C-38.4637 373.266 -16.7225 367.107 3.91148 357.657C51.9991 335.861 94.9598 299.951 136.517 265.221C162.901 243.155 190.192 220.35 218.468 201.456C250.121 180.293 279.734 166.374 308.986 158.896C362.458 145.236 416.794 157.637 469.334 169.621C500.682 176.775 533.106 184.178 564.972 185.943L565.168 185.955L567.911 183.965L566.661 183.898C534.431 182.311 501.906 174.747 470.455 167.43Z" fill="#CCCCCC"/>
<path d="M465.183 179.577C454.353 177.056 443.141 174.446 432.135 172.123C410.434 167.55 381.846 162.332 353.4 162.288C326.29 162.298 299.099 167.628 273.279 177.992C219.602 199.43 172.872 238.478 127.682 276.241C79.8141 316.229 30.3312 357.579 -27.3465 377.878C-36.4 381.07 -45.6236 383.602 -54.946 385.455L-55.7921 385.631L-54.794 387.565L-54.4879 387.499C-37.9968 384.143 -21.8144 378.871 -6.25907 371.786C42.3279 349.742 85.7381 313.458 127.717 278.364C154.385 256.077 181.961 233.032 210.529 213.944C242.52 192.558 272.45 178.49 301.999 170.937C356.031 157.129 410.935 169.657 464.026 181.769C491.927 188.142 520.735 194.685 549.129 197.39L549.334 197.41L551.967 195.498L550.79 195.392C522.141 192.825 493.205 186.075 465.183 179.577Z" fill="#CCCCCC"/>
<path d="M459.848 191.736C448.902 189.19 437.574 186.557 426.461 184.22C403.151 179.307 375.497 174.305 346.924 174.301C319.537 174.314 292.067 179.7 265.984 190.173C211.764 211.832 164.538 251.283 118.899 289.419C70.5817 329.782 20.6298 371.563 -37.7166 392.086C-41.5861 393.453 -45.5868 394.722 -49.5837 395.863L-50.3599 396.092L-49.3872 397.981L-49.0355 397.886C-37.9308 394.73 -27.0217 390.725 -16.4028 385.904C32.6824 363.65 76.542 326.992 118.961 291.533C145.905 269.015 173.765 245.731 202.616 226.44C234.945 204.831 265.184 190.623 294.986 182.951C349.586 169.004 405.059 181.659 458.71 193.89C483.305 199.495 508.736 205.309 533.753 208.461L533.958 208.482L536.536 206.627L535.446 206.591C510.134 203.421 484.601 197.445 459.848 191.736Z" fill="#CCCCCC"/>
<path d="M454.586 203.837C443.516 201.259 432.081 198.611 420.862 196.24C398.69 191.564 369.534 186.2 340.548 186.248C312.881 186.257 285.131 191.697 258.781 202.276C203.973 224.131 156.307 263.947 110.119 302.488C62.1869 342.543 12.5852 383.981 -44.8746 405.071L-45.5802 405.335L-44.5647 407.286L-44.194 407.154C-38.3429 405.029 -32.4119 402.626 -26.5992 399.987C22.994 377.495 67.3031 340.463 110.154 304.648C137.389 281.919 165.517 258.377 194.687 238.9C227.344 217.077 257.882 202.721 288.053 195.009C343.228 180.95 399.244 193.706 453.446 206.065C474.878 210.951 497.02 216.015 518.794 219.335L519.008 219.364L521.55 217.529L520.481 217.363C498.439 214.034 476.139 208.847 454.586 203.837Z" fill="#CCCCCC"/>
<path d="M449.322 215.974C438.136 213.373 426.569 210.683 415.234 208.289C392.857 203.574 363.399 198.166 334.074 198.17C306.128 198.181 278.097 203.674 251.479 214.356C196.145 236.467 147.965 276.724 101.346 315.621C57.0192 352.654 11.1967 390.944 -40.5957 413.384L-41.2573 413.673L-40.2332 415.633L-39.8435 415.464C-38.8827 415.044 -37.8677 414.604 -36.7697 414.079C13.2948 391.386 58.0718 353.96 101.354 317.773C128.876 294.748 157.277 271.031 186.73 251.351C219.716 229.296 250.562 214.801 281.031 207.014C336.748 192.771 393.367 205.69 448.102 218.178C466.442 222.361 485.404 226.689 504.031 229.953L504.235 229.991L506.767 228.166L505.726 227.99C486.921 224.715 467.81 220.272 449.322 215.974Z" fill="#CCCCCC"/>
<path d="M444.068 228.121C432.767 225.495 421.066 222.765 409.598 220.348C386.999 215.576 357.239 210.086 327.627 210.118C299.407 210.151 271.105 215.713 244.23 226.507C188.306 248.887 139.687 289.49 92.6345 328.816C51.9309 362.827 9.84262 397.98 -36.6187 421.045L-37.2272 421.351L-36.3696 423.197L-35.9609 422.99C10.1358 399.855 52.0319 364.847 92.5433 330.98C120.287 307.727 149.035 283.759 178.78 263.885C212.104 241.607 243.268 226.963 273.988 219.149C330.291 204.747 387.47 217.803 442.755 230.438C458.074 233.917 473.935 237.552 489.493 240.517L489.697 240.556L492.239 238.72L491.234 238.525C475.546 235.427 459.544 231.723 444.068 228.121Z" fill="#CCCCCC"/>
<path d="M438.779 240.232C427.354 237.574 415.528 234.83 403.945 232.389C379.72 227.259 350.846 222.033 321.171 222.077C292.664 222.084 264.07 227.691 236.92 238.596C180.465 261.115 131.348 302.195 83.8191 341.905C46.7297 372.903 8.34733 404.967 -33.1361 427.895L-33.7001 428.209L-32.7438 430.043L-32.316 429.798C8.77452 406.846 46.9463 374.946 83.825 344.112C111.869 320.674 140.885 296.429 170.914 276.353C204.538 253.889 236.039 239.059 267.12 231.122C323.955 216.601 381.711 229.775 437.566 242.518C449.926 245.336 462.694 248.251 475.277 250.804L475.49 250.852L478.041 249.007L477.063 248.802C464.277 246.173 451.323 243.163 438.779 240.232Z" fill="#CCCCCC"/>
<path d="M433.328 252.348C421.841 249.684 409.99 246.894 398.344 244.446C375.326 239.624 344.952 234.018 314.751 234.016C285.966 234.03 257.095 239.693 229.681 250.701C172.69 273.468 123.061 314.934 75.0641 355.037C41.5711 383.023 6.93161 411.959 -29.8446 434.228L-30.3728 434.541L-29.4506 436.32L-29.0131 436.048C7.42285 413.79 41.8241 385.046 75.0875 357.262C103.416 333.584 132.707 309.109 163.046 288.838C197.017 266.124 228.799 251.182 260.187 243.161C317.589 228.501 375.897 241.803 432.293 254.665C441.767 256.783 451.495 259.049 461.095 261.108L461.309 261.155L463.896 259.291L462.918 259.067C453.008 256.918 443.004 254.598 433.328 252.348Z" fill="#CCCCCC"/>
<path d="M428.092 264.494C416.471 261.788 404.469 258.994 392.689 256.524C369.387 251.62 338.773 245.976 308.313 245.955C279.242 245.968 250.085 251.685 222.397 262.798C164.863 285.786 114.757 327.655 66.2927 368.133C36.3954 393.125 5.4711 418.962 -26.8414 440.037L-27.3436 440.376L-26.4469 442.111L-25.9909 441.819C5.98946 420.783 36.6044 395.123 66.2976 370.377C94.8552 346.516 124.422 321.793 155.099 301.28C189.434 278.369 221.498 263.262 253.201 255.165C311.09 240.414 369.993 253.815 426.888 266.771C433.446 268.254 440.217 269.804 446.882 271.284L447.096 271.331L449.728 269.438L448.76 269.223C441.89 267.704 434.871 266.071 428.092 264.494Z" fill="#CCCCCC"/>
<path d="M422.776 276.615C411.057 273.903 398.902 271.124 387.062 268.573C363.556 263.611 332.639 257.923 301.829 257.941C272.499 257.944 243.079 263.701 215.14 274.904C157.045 298.113 106.453 340.376 57.5295 381.256C31.2101 403.255 3.99221 425.984 -24.0416 445.467L-24.5166 445.796L-23.6753 447.588L-23.2182 447.26C4.49919 427.888 31.4245 405.372 57.5213 383.638C86.3916 359.491 116.252 334.537 147.175 313.878C181.787 290.681 214.228 275.487 246.183 267.345C304.686 252.407 364.131 265.964 421.62 279.074L432.852 281.628L433.065 281.676L435.726 279.753L434.766 279.529L422.776 276.615Z" fill="#CCCCCC"/>
<path d="M381.417 280.623C357.689 275.623 326.478 269.862 295.382 269.89C265.751 269.886 236.027 275.7 207.803 287.021C149.174 310.424 98.0765 353.118 48.6854 394.392C25.9351 413.388 2.43188 433.037 -21.5083 450.53L-21.9653 450.858L-21.0936 452.529L-20.6273 452.191C2.99586 434.829 26.2146 415.42 48.6811 396.645C77.8352 372.276 107.971 347.092 139.195 326.229C174.17 302.854 206.895 287.457 239.175 279.212C298.246 264.117 358.251 277.792 416.335 291.075L419.009 291.69L421.724 289.729L418.144 288.888C406.096 286.104 393.613 283.235 381.417 280.623Z" fill="#CCCCCC"/>
<path d="M375.788 292.69C351.838 287.634 320.324 281.846 288.951 281.857C259.044 281.863 229.045 287.743 200.561 299.181C141.361 322.834 89.7961 365.921 39.9377 407.569C20.7739 423.582 0.958714 440.141 -18.9858 455.335L-19.4445 455.718L-18.5901 457.372L-18.1141 457.006C1.53949 441.97 21.061 425.66 39.9316 409.878C69.361 385.279 99.7903 359.845 131.341 338.824C166.654 315.226 199.66 299.7 232.283 291.369C258.226 284.732 286.447 283.047 318.531 286.212C346.797 288.995 375.463 295.221 404.803 301.893L405.034 301.941L407.805 299.941L406.845 299.717C396.906 297.33 386.359 294.908 375.788 292.69Z" fill="#CCCCCC"/>
<path d="M370.153 304.73C344.479 299.292 313.959 293.783 282.496 293.797C252.308 293.82 222.032 299.768 193.286 311.324C133.525 335.199 81.4829 378.67 31.1651 420.721C15.57 433.749 -0.566437 447.229 -16.67 459.908L-17.1005 460.245L-16.2456 461.88L-15.769 461.495C0.0333801 449.02 15.8582 435.79 31.151 423.002C60.8556 398.173 91.5601 372.509 123.377 351.248C159.01 327.428 192.342 311.762 225.236 303.33C280.088 289.337 334.814 299.425 390.692 311.983L390.905 312.031L393.739 309.983L392.788 309.768C383.984 307.728 376.776 306.129 370.153 304.73Z" fill="#CCCCCC"/>
<path d="M364.515 316.807C318.109 307.011 292.857 305.761 276.01 305.802C245.548 305.81 214.993 311.803 185.982 323.459C125.669 347.546 73.1412 391.429 22.3376 433.874C10.3197 443.928 -2.13781 454.328 -14.4563 464.264L-14.8689 464.6L-14.0226 466.226L-13.5368 465.832C-1.51957 456.1 10.6079 445.969 22.3229 436.173C52.3027 411.114 83.3009 385.201 115.41 363.746C151.38 339.703 185.03 323.887 218.229 315.427C242.397 309.246 268.291 307.283 297.391 309.42C325.027 311.443 352.951 317.024 376.565 322.248L376.787 322.305L379.658 320.219L378.707 320.004C373.512 318.721 368.836 317.706 364.515 316.807Z" fill="#CCCCCC"/>
</svg>
