<svg width="319" height="230" viewBox="0 0 319 230" fill="none" xmlns="http://www.w3.org/2000/svg">
<path d="M272.965 74.7301C244.985 76.3198 217.555 86.0365 191.058 95.4165C174.23 101.381 156.823 107.543 139.489 111.546C120.066 116.025 102.756 117.261 86.5623 115.323C56.9493 111.792 30.643 94.9879 5.23458 78.7161C-21.7042 61.4867 -49.545 43.685 -81.3876 41.6518C-96.3886 40.6845 -112.134 42.8777 -129.519 48.3376C-146.016 53.5172 -161.87 60.9878 -175.205 67.6125C-181.216 70.5966 -187.299 73.717 -193.154 76.7264C-198.899 79.6736 -204.841 82.7254 -210.711 85.641L-210.966 85.765L-210.759 86.7771L-210.384 86.5943C-205.058 83.9096 -199.702 81.135 -194.464 78.4258C-173.144 67.3929 -151.096 55.9809 -128.816 49.1583C-117.887 45.6787 -106.529 43.548 -94.9975 42.8139C-83.3147 42.1011 -71.5378 43.3476 -60.1627 46.5007C-37.1611 52.8785 -16.0701 66.4814 4.31704 79.6346C9.51824 83.0027 14.8727 86.4395 20.1705 89.7185C30.6259 96.1846 44.4926 104.303 59.035 109.774C72.9064 114.993 87.5817 117.576 102.275 117.385C132.78 117.086 162.27 106.628 190.797 96.53C220.993 85.8467 252.224 74.7945 284.631 75.7947C299.369 76.2576 313.94 79.7222 327.43 85.9715C341.422 92.5178 354.131 101.551 364.907 112.61C381.619 129.524 395.236 151.172 404.321 175.303L404.939 175.103L404.233 171.671C401.798 165.513 399.044 159.474 395.983 153.581C385.256 132.92 371.214 115.179 354.724 101.621C331.293 82.2965 303.017 73.0078 272.965 74.7301Z" fill="white"/>
<path d="M280.923 69.1378C252.596 70.7703 224.887 80.5805 198.085 90.0673C181.054 96.0964 163.463 102.323 145.923 106.367C126.264 110.877 108.765 112.153 92.3921 110.194C62.4471 106.622 35.8536 89.6204 10.1614 73.158C-17.0781 55.7378 -45.233 37.7518 -77.455 35.6672C-92.6219 34.688 -108.55 36.9024 -126.136 42.4268C-142.818 47.6711 -158.856 55.2231 -172.346 61.9228C-178.417 64.9363 -184.577 68.1025 -190.533 71.1609C-197.393 74.6765 -204.462 78.31 -211.512 81.7666L-211.761 81.8873L-211.547 82.9295L-211.171 82.7468C-204.745 79.5436 -198.19 76.1514 -191.853 72.8736C-170.294 61.7165 -147.995 50.1738 -125.463 43.2706C-114.41 39.7519 -102.926 37.5958 -91.2639 36.8504C-79.4477 36.133 -67.5368 37.3969 -56.0328 40.5887C-32.7663 47.0399 -11.4362 60.7961 9.19687 74.0993C14.4249 77.4544 19.8621 80.9858 25.2179 84.2956C35.786 90.8332 49.8097 99.0432 64.529 104.58C78.5569 109.866 93.3992 112.485 108.261 112.298C139.157 111.943 168.964 101.399 197.813 91.194C228.328 80.3974 259.932 69.206 292.715 70.2173C307.63 70.6911 322.374 74.2068 336.02 80.5439C350.173 87.1602 363.029 96.2944 373.928 107.478C382.331 116.036 389.795 125.444 396.191 135.537L397.146 137.036L396.435 133.581L396.414 133.541C387.494 119.553 376.433 106.986 363.641 96.3037C339.912 76.7957 311.31 67.3961 280.923 69.1378Z" fill="white"/>
<path d="M-187.851 65.5834C-195.851 69.6873 -204.116 73.9284 -212.318 77.9028L-212.553 78.017L-212.335 79.0827L-211.96 78.8999C-204.382 75.2123 -196.651 71.1721 -189.228 67.3322C-167.425 56.0477 -144.868 44.3709 -122.087 37.3972C-110.908 33.8395 -99.2916 31.6592 -87.4969 30.9048C-75.5559 30.1713 -63.5178 31.4355 -51.8871 34.6442C-28.3389 41.169 -6.76923 55.0951 14.0963 68.5549C19.3963 71.9676 24.8775 75.5029 30.2845 78.8467C40.9619 85.4491 55.1395 93.7613 70.0356 99.3642C84.222 104.704 99.2311 107.348 114.259 107.154C145.48 106.81 175.649 96.1395 204.831 85.8319C235.723 74.9027 267.657 63.6015 300.804 64.6205C315.881 65.0925 330.786 68.6386 344.584 75.0363C358.898 81.7265 371.899 90.9648 382.92 102.277C385.784 105.172 388.598 108.245 391.274 111.409L392.115 112.398L391.591 109.771L391.563 109.717C385.784 102.957 379.423 96.7003 372.557 91.021C348.561 71.2724 319.638 61.7587 288.911 63.5231C260.263 65.1684 232.241 75.0886 205.137 84.6888C187.932 90.7861 170.128 97.0902 152.38 101.185C132.526 105.79 114.801 107.034 98.2414 105.055C67.9543 101.439 41.0668 84.2435 15.0573 67.6069C-12.4895 49.9991 -40.9727 31.7852 -73.5162 29.6802C-85.2784 29.013 -97.0281 30.0195 -108.405 32.6688L-123.766 36.849C-140.268 42.1322 -156.131 49.6161 -169.477 56.2373C-175.632 59.3166 -181.842 62.499 -187.851 65.5834Z" fill="white"/>
<path d="M-47.6724 28.767C-23.8829 35.3681 -2.06418 49.4343 19.0268 63.0372C24.3953 66.5009 29.938 70.0737 35.4167 73.4584C46.2307 80.1461 60.5618 88.5437 75.5943 94.215C89.9333 99.6115 105.103 102.286 120.292 102.094C151.865 101.747 182.367 90.9573 211.858 80.5163C243.086 69.4741 275.382 58.0301 308.905 59.077C337.514 59.9619 364.691 71.6312 387.494 92.8366L388.256 93.5443L387.811 91.3594L387.776 91.2921C385.716 89.3955 383.582 87.5348 381.44 85.7709C357.18 65.8053 327.935 56.1874 296.866 57.9745C267.901 59.6395 239.567 69.6696 212.163 79.3732C194.756 85.5349 176.762 91.907 158.831 96.0566C138.749 100.689 120.841 101.97 104.081 99.9459C73.4625 96.3058 46.2674 78.9062 19.971 62.089C-7.88354 44.277 -36.6511 25.8391 -69.6102 23.7424C-71.2616 23.6359 -72.9934 23.5685 -74.7585 23.5342L-74.7987 23.5537L-79.3009 24.784L-77.2627 24.7781C-67.2994 24.7564 -57.3416 26.0987 -47.6724 28.767Z" fill="white"/>
<path d="M-43.5356 22.852C-19.4812 29.5265 2.59717 43.7529 23.914 57.5156C29.3302 61.0066 34.9276 64.6201 40.4436 68.012C51.3704 74.7712 65.8652 83.2577 81.0778 88.9846C95.5959 94.4546 110.958 97.1618 126.338 96.9608C158.249 96.6012 189.087 85.6981 218.907 75.1474C250.495 63.9891 283.137 52.4188 317.022 53.4667C340.821 54.1975 364.14 62.5615 384.42 77.5622L385.118 78.0653L384.706 76.0746L384.671 76.0073C361.367 58.8545 333.772 50.667 304.858 52.3326C275.572 54.0105 246.918 64.1539 219.219 73.9676C201.621 80.1973 183.421 86.6437 165.295 90.8212C144.99 95.5109 126.887 96.8035 109.951 94.7803C78.9936 91.0861 51.5012 73.5024 24.9178 56.5045C-0.763556 40.079 -27.3128 23.0983 -56.9544 18.6708L-57.029 18.6566L-60.1786 19.5151L-58.8301 19.7016C-53.6727 20.3902 -48.5613 21.443 -43.5356 22.852Z" fill="white"/>
<path d="M-39.3721 16.941C-15.077 23.6584 7.2379 38.0815 28.7831 51.9606C34.2404 55.4822 39.9436 59.1538 45.5152 62.6366C56.5614 69.4641 71.2066 78.046 86.5961 83.8385C101.254 89.3581 116.763 92.0908 132.291 91.8901C164.556 91.5347 195.724 80.5052 225.849 69.8477C257.772 58.5263 290.782 46.8701 325.035 47.9324C344.95 48.5503 364.502 54.3203 381.739 64.6664L382.405 65.0587L382.033 63.2424L381.938 63.1877C371.466 57.0785 360.154 52.5673 348.397 49.8113C336.673 47.0987 324.66 46.0854 312.739 46.8034C283.139 48.5076 254.18 58.7577 226.185 68.6983C208.395 74.9959 189.997 81.5136 171.669 85.7387C151.139 90.4793 132.813 91.796 115.718 89.7408C84.3847 86.0187 56.6252 68.2279 29.7514 51.0427C6.82402 36.3783 -16.8824 21.2166 -42.6555 14.856L-42.7438 14.8315L-45.2304 15.5107L-44.1819 15.7505C-42.6283 16.0732 -41.0124 16.4835 -39.3721 16.941Z" fill="white"/>
<path d="M33.6935 46.4357C39.2362 50.0085 44.9668 53.7005 50.6232 57.201C61.7688 64.1066 76.5946 72.7775 92.1405 78.6288C106.969 84.2008 122.655 86.9581 138.36 86.7534C170.94 86.4051 202.437 75.2658 232.949 64.4625C265.209 53.0448 298.577 41.2391 333.176 42.3189C349.145 42.8234 364.926 46.6265 379.504 53.4837L380.124 53.7719L379.792 52.1465L379.673 52.095C361.292 43.696 341.487 40.0273 320.731 41.2283C290.804 42.9487 261.536 53.3154 233.225 63.3425C215.243 69.708 196.65 76.2869 178.13 80.5633C157.374 85.3546 138.876 86.6793 121.571 84.6082C89.9329 80.8324 61.846 62.8638 34.6749 45.4946C14.0882 32.329 -7.21646 18.6868 -29.8752 11.3837L-29.967 11.3525L-32.1239 11.9387L-31.2506 12.2132C-8.2391 19.3867 13.0809 33.1394 33.6935 46.4357Z" fill="white"/>
<path d="M38.596 40.8976C44.1935 44.5112 49.9721 48.2472 55.7034 51.7787C66.9786 58.756 81.9446 67.5189 97.6607 73.439C112.637 79.0685 128.479 81.8582 144.342 81.6594C177.3 81.2955 209.143 70.03 239.941 59.1298C272.583 47.5762 306.271 35.6573 341.265 36.7384C353.597 37.1127 365.844 39.4411 377.54 43.635L378.124 43.8392L377.823 42.368L377.683 42.3262C361.888 36.8597 345.23 34.5751 328.709 35.6097C298.471 37.3465 268.889 47.8232 240.279 57.9537C222.1 64.3904 203.309 71.0405 184.587 75.3646C163.585 80.2166 144.944 81.5262 127.427 79.4492C95.4528 75.6259 67.0687 57.4733 39.6107 39.9235C21.1219 28.0966 1.9941 15.8643 -18.0485 8.14771L-18.1504 8.11308L-20.1223 8.65129L-19.3501 8.94127C0.93498 16.6073 20.0816 28.9568 38.596 40.8976Z" fill="white"/>
<path d="M43.5068 35.3735C49.1622 39.0178 55.009 42.788 60.7814 46.3501C72.1796 53.4024 87.3026 62.2574 103.182 68.233C118.312 73.9269 134.317 76.7514 150.344 76.556C183.651 76.1829 215.827 64.7976 246.95 53.781C279.905 42.1174 313.983 30.0594 349.346 31.1549C358.237 31.4301 367.096 32.712 375.749 34.9756L376.292 35.1158L376.013 33.7685L375.856 33.7265C362.999 30.4914 349.766 29.2535 336.638 30.0578C306.079 31.8075 276.185 42.3942 247.269 52.6314C228.908 59.1395 209.919 65.8607 190.991 70.2259C169.801 75.119 150.904 76.4691 133.227 74.3601C100.914 70.4994 72.2262 52.1493 44.4844 34.4089C27.933 23.8219 10.8143 12.8705 -6.87932 5.13164L-6.9883 5.08355L-8.84906 5.59299L-8.15444 5.89541C9.77207 13.6136 26.9231 24.6758 43.5068 35.3735Z" fill="white"/>
<path d="M48.3964 29.8247C54.1066 33.5098 60.0184 37.3243 65.8592 40.9373C77.3768 48.0579 92.677 56.9952 108.713 63.0629C124.004 68.816 140.181 71.6665 156.378 71.4621C190.032 71.0965 222.547 59.5882 253.99 48.4583C287.295 36.6753 321.725 24.4877 357.456 25.5976C363.066 25.7686 368.668 26.3379 374.217 27.3012L374.723 27.3841L374.465 26.1107L374.282 26.0818C364.451 24.4207 354.493 23.8772 344.603 24.462C313.723 26.2413 283.517 36.938 254.305 47.2853C235.749 53.8546 216.562 60.6471 197.439 65.0567C176.023 70.0007 156.924 71.365 139.067 69.2339C106.416 65.3356 77.4267 46.7948 49.3945 28.8671C34.6642 19.4417 19.449 9.72979 3.86169 2.21319L3.74921 2.15836L1.96251 2.64864L2.60992 2.95721C18.3625 10.4524 33.6172 20.3052 48.3964 29.8247Z" fill="white"/>
<path d="M53.3235 24.284C59.0952 28.0066 65.0685 31.8586 70.9673 35.5024C83.3388 43.1513 98.1469 51.7719 114.261 57.8439C129.709 63.6551 146.051 66.5337 162.413 66.3258C196.409 65.9542 229.267 54.3296 261.023 43.0898C294.64 31.1968 329.403 18.8727 365.547 20.001C367.944 20.0729 370.401 20.2258 372.835 20.4486L373.309 20.4877L373.058 19.2444L372.845 19.2218C366.084 18.595 359.3 18.4763 352.551 18.867C321.357 20.6559 290.838 31.4625 261.321 41.9166C242.573 48.5538 223.187 55.4174 203.873 59.8782C182.231 64.873 162.936 66.2484 144.917 64.1288C111.924 60.1863 82.6343 41.4547 54.305 23.3429C41.3174 15.0415 27.8923 6.44734 14.2802 -0.597808L14.1677 -0.652642L12.4212 -0.181945L13.0305 0.0693336C26.8061 7.18663 40.2635 15.8915 53.3235 24.284Z" fill="white"/>
<path d="M58.1998 18.7587C64.0364 22.5255 70.0677 26.4083 76.0212 30.0929C87.7882 37.3702 103.386 46.5083 119.741 52.6399C135.346 58.5123 151.855 61.4213 168.385 61.2113C202.743 60.8574 235.907 49.1261 268.036 37.7804C301.387 25.9745 335.898 13.7645 371.632 14.3931L372.071 14.3983L371.806 13.1114L371.576 13.1053C367.941 13.0287 364.217 13.088 360.523 13.3016C329.005 15.1134 298.173 26.0299 268.357 36.5874C249.411 43.2791 229.834 50.2274 210.31 54.7225C188.45 59.7648 168.962 61.158 150.73 58.9823C117.394 54.979 87.8139 36.0767 59.1941 17.7776C47.8774 10.5424 36.188 3.05879 24.4315 -3.38931L24.3156 -3.45087L22.5927 -2.98326L23.1693 -2.66551C35.0755 3.84453 46.8342 11.4293 58.1998 18.7587Z" fill="white"/>
<path d="M63.0827 13.2141C68.9808 17.0184 75.0805 20.9521 81.0956 24.6742C92.9718 32.0164 108.733 41.2433 125.272 47.4708C141.036 53.4014 157.711 56.3406 174.408 56.1316C209.104 55.7482 242.627 43.8842 275.055 32.435C305.896 21.522 337.779 10.2369 370.529 8.92108L370.948 8.90266L370.68 7.60904L370.433 7.61948C369.825 7.64568 369.183 7.67149 368.481 7.72667C336.666 9.54835 305.509 20.5813 275.39 31.2522C256.236 38.0451 236.477 45.0313 216.761 49.5776C194.679 54.6775 174.995 56.0817 156.583 53.8838C122.913 49.8665 93.0181 30.7465 64.118 12.2636C54.4346 6.07077 44.4231 -0.333178 34.4326 -6.08165L34.3234 -6.14646L32.6072 -5.6821L33.1669 -5.36455C43.2561 0.428536 53.3334 6.92689 63.0827 13.2141Z" fill="white"/>
<path d="M67.9626 7.66236C73.9222 11.5042 80.0903 15.4889 86.177 19.252C98.1695 26.6723 114.088 36.0082 130.794 42.2811C146.715 48.258 163.554 51.2173 180.414 51.0011C215.484 50.5954 249.31 38.6347 282.05 27.0421C310.371 17.0185 339.654 6.66193 369.495 3.8707L369.887 3.83189L369.694 2.63613L369.431 2.6631C339.784 5.5703 310.633 15.8883 282.443 25.8734C263.128 32.7446 243.133 39.7949 223.223 44.3857C200.914 49.5364 181.028 50.9549 162.47 48.7185C128.444 44.6635 98.2556 25.3495 69.0682 6.66923C60.9772 1.50497 52.6056 -3.85985 44.2987 -8.79266L44.1895 -8.85746L42.4666 -8.38985L43.0027 -8.06924C51.3619 -3.03552 59.8023 2.397 67.9626 7.66236Z" fill="white"/>
<path d="M72.8554 2.13768C78.88 6.02373 85.1163 10.0427 91.2645 13.8433C104.118 21.8054 119.578 30.8082 136.321 37.0882C152.4 43.1401 169.411 46.1368 186.443 45.9178C221.835 45.5494 256.017 33.4324 289.086 21.7301C314.894 12.5926 341.599 3.14484 368.612 -0.629437L368.979 -0.681922L368.729 -1.89174L368.449 -1.84824C341.654 2.02222 315.094 11.4249 289.431 20.5173C269.917 27.4263 249.728 34.5712 229.626 39.2132C207.119 44.4017 187.013 45.851 168.232 43.6053C133.887 39.5031 103.391 20.0016 73.9001 1.1405C67.3739 -3.03233 60.6323 -7.34478 53.9387 -11.4193L53.826 -11.4908L52.0964 -11.02L52.6156 -10.6996C59.412 -6.54024 66.243 -2.13646 72.8554 2.13768Z" fill="white"/>
<path d="M77.841 -3.35653C83.8996 0.546632 90.1432 4.59575 96.3255 8.41347C108.546 15.9502 124.793 25.4805 141.825 31.8977C158.062 38.0048 175.238 41.0294 192.436 40.81C228.169 40.4189 262.7 28.1991 296.095 16.3804C319.4 8.13244 343.5 -0.393496 367.754 -4.80565L368.101 -4.86505L367.862 -6.03797L367.572 -5.98122C343.512 -1.50326 319.576 6.96782 296.433 15.1541C276.721 22.1343 256.341 29.3471 236.033 34.0302C213.29 39.2827 193.009 40.7332 174.042 38.4686C139.355 34.3222 108.568 14.6333 78.7901 -4.40834C73.7814 -7.58361 68.6522 -10.894 63.5625 -14.0636L63.4497 -14.1351L61.6965 -13.6612L62.2124 -13.3308C67.463 -10.0456 72.7391 -6.64657 77.841 -3.35653Z" fill="white"/>
<path d="M82.7098 -8.91118C88.8369 -4.95706 95.1656 -0.873496 101.42 2.98519C113.788 10.6273 130.164 20.2294 147.339 26.7118C163.737 32.8798 181.083 35.936 198.451 35.717C234.526 35.3199 269.39 22.9804 303.108 11.0551C323.912 3.68682 345.428 -3.92708 366.977 -8.63214L367.313 -8.71173L367.081 -9.85448L366.778 -9.79121C345.423 -5.03706 324.109 2.54583 303.459 9.82236C283.589 16.8541 263.014 24.1449 242.477 28.8887C219.498 34.1718 199.032 35.6537 179.875 33.3633C144.899 29.1633 113.792 9.29352 83.7478 -9.9051C80.2832 -12.1126 76.7091 -14.4016 73.1833 -16.6299L73.0706 -16.7014L71.2871 -16.2212L71.7995 -15.8975C75.4346 -13.6044 79.1354 -11.2169 82.7098 -8.91118Z" fill="white"/>
<path d="M87.6201 -14.4358C93.8017 -10.4576 100.219 -6.34961 106.494 -2.43384C118.968 5.28311 135.508 14.974 152.887 21.509C169.429 27.7381 186.93 30.8279 204.454 30.6132C240.88 30.2136 276.08 17.761 310.12 5.71259C328.434 -0.772645 347.37 -7.46781 366.254 -12.2079L366.574 -12.2876L366.382 -13.45L366.072 -13.3667C347.385 -8.621 328.647 -1.9803 310.501 4.40663C290.409 11.5293 269.632 18.8846 248.933 23.6566C225.754 29.0376 205.06 30.4866 185.754 28.1678C150.403 23.9399 119.015 3.86956 88.6596 -15.54L82.728 -19.328L82.6152 -19.3996L80.8116 -18.9095L81.3174 -18.5826L87.6201 -14.4358Z" fill="white"/>
<path d="M111.578 -7.8496C124.172 -0.0643543 140.865 9.72866 158.408 16.3191C175.119 22.6162 192.799 25.7389 210.504 25.5198C247.261 25.1275 282.814 12.5454 317.18 0.380491C333.008 -5.21495 349.362 -11.0081 365.624 -15.5252L365.933 -15.6085L365.705 -16.711L365.389 -16.6245C349.327 -12.1117 333.17 -6.38979 317.538 -0.855545C297.252 6.32836 276.283 13.7516 255.382 18.5713C231.97 23.973 211.084 25.4732 191.578 23.142C155.882 18.8799 124.197 -1.37454 93.5335 -21.0051L92.1223 -21.9111L90.2816 -21.4115L92.1681 -20.1889C98.5239 -16.1017 105.112 -11.8746 111.578 -7.8496Z" fill="white"/>
<path d="M116.657 -13.2784C129.366 -5.41487 146.227 4.45701 163.923 11.1161C180.791 17.4661 198.637 20.6111 216.506 20.3828C253.625 19.9748 289.504 7.27621 324.193 -4.9952C337.527 -9.7143 351.314 -14.5952 364.96 -18.6988L365.279 -18.812L365.058 -19.9011L364.732 -19.8014C351.275 -15.7223 337.693 -10.9159 324.56 -6.26122C304.082 0.990615 282.909 8.48826 261.799 13.3256C238.161 18.778 217.096 20.2895 197.383 17.9324C181.705 16.0645 165.523 10.9947 147.927 2.44127C132.424 -5.09104 117.239 -14.5987 101.744 -24.4945L101.621 -24.5694L99.7435 -24.0602L100.249 -23.7333C105.478 -20.3113 111.045 -16.7416 116.657 -13.2784Z" fill="white"/>
<path d="M121.734 -18.691C135.356 -10.2517 151.7 -0.743688 169.447 5.93272C186.476 12.3329 204.49 15.4992 222.525 15.2621C259.995 14.8516 296.203 2.04328 331.215 -10.3513C342.066 -14.1906 353.293 -18.1625 364.375 -21.7015L364.671 -21.795L364.446 -22.8741L364.117 -22.7643C353.237 -19.2731 342.225 -15.3722 331.583 -11.6006C310.913 -4.28086 289.548 3.28469 268.25 8.19666C244.396 13.7034 223.126 15.2225 203.244 12.8633C170.101 8.89241 140.828 -8.27113 111.294 -27.0358L111.182 -27.1073L109.26 -26.5852L109.762 -26.265C114.406 -23.2746 118.219 -20.8657 121.734 -18.691Z" fill="white"/>
<path d="M126.818 -24.123C151.445 -8.88677 165.49 -2.83605 174.997 0.720299C192.179 7.18689 210.357 10.3881 228.557 10.1524C266.372 9.7426 302.92 -3.18871 338.268 -15.6963C346.631 -18.6626 355.298 -21.7255 363.813 -24.5629L364.098 -24.6597L363.878 -25.7321L363.542 -25.6191C355.229 -22.8295 346.791 -19.8441 338.639 -16.9556C317.778 -9.56793 296.207 -1.92791 274.714 3.02853C250.635 8.58609 229.162 10.1195 209.103 7.71146C194.498 5.97 179.585 1.54708 163.51 -5.80816C148.243 -12.7894 133.374 -21.7852 120.88 -29.6695L120.764 -29.7478L118.816 -29.2126L119.318 -28.8924C122.046 -27.0848 124.523 -25.5343 126.818 -24.123Z" fill="white"/>
</svg>
