<svg width="129" height="121" viewBox="0 0 129 121" fill="none" xmlns="http://www.w3.org/2000/svg">
<path d="M151.427 36.7505C129.211 53.8523 112.038 77.3536 95.4465 100.05C84.9128 114.471 74.0127 129.381 61.9531 142.468C48.4379 157.127 34.8357 167.915 20.3641 175.454C-6.09313 189.25 -37.3138 190.223 -67.4922 191.128C-99.4757 192.107 -132.527 193.122 -159.981 209.413C-172.919 217.08 -184.688 227.776 -195.966 242.094C-206.669 255.68 -215.547 270.794 -222.823 283.789C-226.103 289.644 -229.366 295.653 -232.504 301.442C-235.585 307.117 -238.77 312.989 -241.973 318.709L-242.114 318.955L-241.372 319.674L-241.165 319.311C-238.281 314.089 -235.424 308.777 -232.626 303.584C-221.244 282.444 -209.475 260.581 -194.922 242.375C-187.858 233.335 -179.679 225.167 -170.567 218.053C-161.319 210.872 -150.886 205.254 -139.709 201.438C-117.106 193.723 -92.0009 193.051 -67.7316 192.404C-61.5329 192.25 -55.1689 192.065 -48.9408 191.783C-36.6523 191.22 -20.6129 190.097 -5.50968 186.407C8.89667 182.888 22.4786 176.739 34.5084 168.289C59.5398 150.827 77.996 125.552 95.859 101.117C114.771 75.2568 134.33 48.508 161.666 31.0458C174.103 23.1106 188.096 17.7483 202.769 15.2945C218.024 12.803 233.624 13.0885 248.771 16.1364C272.128 20.669 295.601 30.856 316.733 45.6509L317.131 45.1368L314.609 42.7024C309.12 38.9919 303.436 35.561 297.578 32.4235C277.05 21.4206 255.432 14.6981 234.154 12.8106C203.885 10.0806 175.281 18.3693 151.427 36.7505Z" fill="white"/>
<path d="M154.843 27.6429C132.365 44.976 115.014 68.7121 98.2298 91.6691C87.5658 106.257 76.5496 121.325 64.3433 134.562C50.6504 149.379 36.9156 160.308 22.2832 167.93C-4.47123 181.88 -36.0407 182.852 -66.5611 183.76C-98.9006 184.75 -132.316 185.791 -160.111 202.253C-173.194 210.004 -185.101 220.821 -196.51 235.306C-207.329 249.049 -216.313 264.335 -223.674 277.478C-226.988 283.392 -230.288 289.482 -233.481 295.368C-237.164 302.142 -240.951 309.13 -244.823 315.963L-244.96 316.203L-244.195 316.943L-243.988 316.58C-240.488 310.309 -236.989 303.809 -233.605 297.527C-222.096 276.15 -210.193 254.037 -195.477 235.623C-188.334 226.48 -180.064 218.219 -170.851 211.023C-161.495 203.763 -150.941 198.084 -139.636 194.227C-116.772 186.423 -91.3835 185.742 -66.8263 185.081C-60.6129 184.901 -54.127 184.748 -47.8337 184.458C-35.4116 183.891 -19.1905 182.755 -3.90414 179.019C10.6688 175.466 24.409 169.253 36.5803 160.712C61.9034 142.983 80.5721 117.457 98.6415 92.7527C117.753 66.6189 137.542 39.5446 165.194 21.8798C177.783 13.8537 191.948 8.4359 206.8 5.96643C222.227 3.44176 238.006 3.7277 253.325 6.80955C265.099 9.13256 276.578 12.6869 287.561 17.4101L289.196 18.1089L286.658 15.6573L286.618 15.6358C271.351 9.12226 255.116 4.98925 238.517 3.38992C207.898 0.675698 178.962 9.05705 154.843 27.6429Z" fill="white"/>
<path d="M-234.415 289.25C-238.707 297.153 -243.139 305.318 -247.67 313.227L-247.799 313.454L-247.018 314.211L-246.811 313.848C-242.634 306.528 -238.529 298.83 -234.565 291.471C-222.926 269.851 -210.886 247.481 -196.004 228.868C-188.778 219.622 -180.413 211.267 -171.096 203.988C-161.646 196.644 -150.987 190.894 -139.567 186.98C-116.43 179.077 -90.7469 178.402 -65.9093 177.739C-59.6039 177.565 -53.0795 177.39 -46.7246 177.1C-34.1757 176.525 -17.7698 175.386 -2.30024 171.605C12.4346 168.008 26.3264 161.721 38.6312 153.08C64.2285 135.177 83.1258 109.342 101.412 84.3649C120.76 57.9092 140.758 30.5584 168.717 12.6938C181.438 4.57501 195.754 -0.908806 210.765 -3.41377C226.367 -5.96801 242.324 -5.6783 257.817 -2.55942C261.818 -1.78527 265.877 -0.836517 269.874 0.265582L271.128 0.607685L269.212 -1.2655L269.158 -1.29416C260.566 -3.61374 251.779 -5.18966 242.9 -6.00333C211.925 -8.76506 182.66 -0.297525 158.272 18.4995C135.536 36.0244 117.989 60.0276 101.019 83.2489C90.249 97.9917 79.1018 113.243 66.752 126.64C52.9518 141.645 39.011 152.675 24.214 160.386C-2.84802 174.493 -34.7698 175.47 -65.6508 176.414C-98.3501 177.423 -132.165 178.46 -160.238 195.088C-170.331 201.175 -179.469 208.636 -187.372 217.244L-197.701 229.363C-208.35 243.037 -217.228 258.168 -224.514 271.165C-227.86 277.181 -231.193 283.313 -234.415 289.25Z" fill="white"/>
<path d="M-139.405 179.75C-116.025 171.774 -90.0571 171.074 -64.9524 170.401C-58.5616 170.231 -51.9653 170.053 -45.528 169.755C-32.8181 169.174 -16.2372 168.019 -0.616303 164.218C14.2765 160.581 28.3181 154.228 40.7576 145.498C66.6439 127.394 85.7485 101.273 104.214 76.0115C123.776 49.2728 143.994 21.5995 172.278 3.5459C196.411 -11.8682 225.452 -17.5712 256.264 -12.9339L257.294 -12.7798L255.692 -14.3321L255.625 -14.3679C252.852 -14.7712 250.039 -15.1032 247.273 -15.3504C215.957 -18.1425 186.367 -9.57872 161.71 9.42953C138.723 27.1497 120.98 51.4201 103.821 74.8956C92.9211 89.8054 81.654 105.221 69.185 118.765C55.2108 133.922 41.1412 145.086 26.1529 152.873C-1.19664 167.147 -33.488 168.129 -64.708 169.086C-97.7768 170.1 -131.953 171.113 -160.365 187.982C-161.789 188.826 -163.258 189.747 -164.735 190.715L-164.757 190.754L-167.782 194.31L-166.102 193.155C-157.883 187.515 -148.899 183.003 -139.405 179.75Z" fill="white"/>
<path d="M-139.328 172.532C-115.687 164.468 -89.4148 163.753 -64.0334 163.085C-57.5877 162.91 -50.9231 162.735 -44.451 162.422C-31.6076 161.836 -14.8412 160.662 0.959869 156.805C16.0421 153.128 30.2612 146.694 42.8535 137.848C69.0116 119.543 88.33 93.1394 107.006 67.601C126.8 40.5635 147.232 12.5907 175.815 -5.66629C195.888 -18.4936 219.875 -24.748 245.099 -23.8085L245.959 -23.7871L244.495 -25.198L244.428 -25.2338C215.491 -26.2434 188.071 -17.4299 165.126 0.262162C141.881 18.1741 123.938 42.7181 106.597 66.4513C95.5774 81.5253 84.183 97.1178 71.5681 110.796C57.4429 126.126 43.2176 137.409 28.0849 145.296C0.424771 159.716 -32.216 160.715 -63.775 161.684C-94.2658 162.616 -125.787 163.58 -152.774 176.653L-152.844 176.683L-154.961 179.169L-153.741 178.562C-149.092 176.22 -144.275 174.205 -139.328 172.532Z" fill="white"/>
<path d="M-139.226 165.303C-115.363 157.138 -88.7837 156.452 -63.1478 155.751C-56.6509 155.579 -49.8662 155.391 -43.2968 155.123C-30.3161 154.525 -13.3716 153.345 2.61259 149.443C17.8384 145.728 32.1931 139.232 44.9072 130.303C71.361 111.801 90.8799 85.1073 109.748 59.3083C129.727 31.9468 150.413 3.69593 179.31 -14.7572C196.11 -25.4855 215.52 -31.7557 235.602 -32.942L236.374 -32.9938L235.041 -34.2835L234.931 -34.2747C222.831 -33.4087 210.939 -30.7495 199.67 -26.3899C188.453 -22.0132 177.957 -16.0704 168.514 -8.75016C145.025 9.36066 126.889 34.1653 109.377 58.17C98.2369 73.4082 86.719 89.1713 73.9641 103.002C59.6812 118.502 45.2856 129.931 30.0032 137.881C2.01693 152.491 -30.9614 153.469 -62.8662 154.447C-90.0874 155.279 -118.233 156.141 -143.116 165.434L-143.202 165.464L-144.873 167.428L-143.872 167.034C-142.406 166.424 -140.839 165.851 -139.226 165.303Z" fill="white"/>
<path d="M-62.2112 148.419C-55.6149 148.241 -48.7961 148.055 -42.1466 147.753C-29.0398 147.164 -11.8958 145.955 4.25083 142.013C19.6474 138.245 34.1626 131.669 47.0206 122.637C73.7382 103.964 93.4672 76.9934 112.572 50.8559C132.774 23.2251 153.673 -5.35189 182.865 -23.9853C196.342 -32.5807 211.526 -38.3467 227.441 -40.9123L228.116 -41.0243L226.924 -42.179L226.796 -42.1544C206.869 -38.7154 188.436 -30.5672 171.969 -17.8631C148.217 0.446009 129.893 25.5214 112.167 49.7759C100.908 65.1783 89.2634 81.102 76.379 95.0836C61.9383 110.752 47.4049 122.285 31.9402 130.341C3.6715 145.078 -29.6778 146.094 -61.932 147.088C-86.3732 147.837 -111.677 148.598 -134.519 155.355L-134.612 155.381L-136.063 157.083L-135.187 156.816C-112.126 149.753 -86.7476 149.075 -62.2112 148.419Z" fill="white"/>
<path d="M-61.2886 141.08C-54.624 140.905 -47.7406 140.728 -41.0118 140.409C-27.7573 139.806 -10.4456 138.595 5.88045 134.613C21.4316 130.809 36.0939 124.172 49.0854 115.056C76.1067 96.1566 96.0503 68.8865 115.337 42.5078C135.778 14.5487 156.877 -14.302 186.396 -33.1575C196.794 -39.8075 208.227 -44.7967 220.257 -47.9346L220.855 -48.0961L219.775 -49.1403L219.636 -49.0962C203.501 -44.6956 188.45 -37.181 175.386 -27.0034C151.387 -8.50545 132.866 16.8371 114.952 41.3458C103.569 56.9188 91.8012 73.0132 78.7769 87.1482C64.1675 103.006 49.5081 114.606 33.864 122.777C5.29146 137.665 -28.4072 138.697 -61.0005 139.704C-82.9526 140.374 -105.662 141.07 -126.576 146.01L-126.68 146.039L-128.005 147.596L-127.203 147.399C-106.117 142.281 -83.3262 141.671 -61.2886 141.08Z" fill="white"/>
<path d="M-60.3515 133.749C-53.6217 133.566 -46.6626 133.379 -39.8825 133.062C-26.4842 132.452 -8.99074 131.228 7.50144 127.2C23.2156 123.362 38.0327 116.662 51.1622 107.456C78.4659 88.3519 98.6167 60.7953 118.107 34.1365C138.744 5.9102 160.087 -23.2752 189.918 -42.3269C197.418 -47.1172 205.46 -51.0582 213.887 -54.0727L214.415 -54.2636L213.423 -55.2181L213.271 -55.1646C200.822 -50.5795 189.191 -44.1336 178.801 -36.0611C154.544 -17.3715 135.827 8.23822 117.721 33.0076C106.228 48.7419 94.3366 65.0069 81.1657 79.2918C66.4237 95.2896 51.5755 107.068 35.7817 115.303C6.90819 130.35 -27.1533 131.391 -60.0886 132.401C-79.7401 133.001 -100.066 133.621 -119.053 137.217L-119.17 137.239L-120.419 138.709L-119.675 138.567C-100.507 134.822 -80.0922 134.276 -60.3515 133.749Z" fill="white"/>
<path d="M-59.4456 126.409C-52.6475 126.228 -45.6097 126.041 -38.7444 125.728C-25.2088 125.107 -7.52247 123.851 9.15146 119.81C25.032 115.93 40.0048 109.155 53.2696 99.846C80.8652 80.5518 101.227 52.7021 120.917 25.7697C141.776 -2.75254 163.336 -32.2439 193.48 -51.4918C198.211 -54.5163 203.16 -57.2073 208.288 -59.5441L208.752 -59.7607L207.82 -60.6664L207.653 -60.5869C198.594 -56.4109 190.061 -51.2398 182.22 -45.1755C157.716 -26.2804 138.803 -0.403566 120.515 24.6236C108.895 40.5185 96.8801 56.9541 83.5729 71.3859C68.6733 87.553 53.6658 99.4576 37.7111 107.775C8.53675 122.983 -25.8809 124.036 -59.1619 125.055C-76.653 125.586 -94.7064 126.155 -111.828 128.746L-111.951 128.764L-113.151 130.177L-112.442 130.067C-95.1959 127.365 -77.0303 126.89 -59.4456 126.409Z" fill="white"/>
<path d="M-58.5041 119.054C-51.634 118.87 -44.5243 118.679 -37.5936 118.359C-23.0543 117.692 -5.95335 116.452 10.7873 112.371C26.8301 108.451 41.9557 101.605 55.3554 92.1995C83.2296 72.7078 103.809 44.5686 123.695 17.3691C144.75 -11.4203 166.508 -41.2119 197.003 -60.6775C199.025 -61.9713 201.14 -63.2314 203.277 -64.4211L203.691 -64.6563L202.781 -65.5412L202.592 -65.4395C196.653 -62.1418 190.982 -58.4111 185.627 -54.2797C160.868 -35.1994 141.759 -9.05547 123.278 16.2323C111.539 32.2914 99.4006 48.8977 85.9639 63.4801C70.9065 79.8164 55.7435 91.8407 39.6614 100.259C10.1794 115.624 -24.5943 116.689 -58.2247 117.723C-73.6415 118.199 -89.585 118.681 -104.808 120.546L-104.932 120.564L-106.109 121.939L-105.464 121.802C-90.0648 119.904 -74.0321 119.496 -58.5041 119.054Z" fill="white"/>
<path d="M-57.5959 111.741C-50.6471 111.557 -43.4722 111.358 -36.4733 111.041C-22.6431 110.408 -4.59775 109.15 12.3757 104.982C28.5831 101.024 43.8638 94.1088 57.4004 84.6071C85.5836 64.9257 106.355 36.5259 126.49 9.02822C147.375 -19.5394 168.989 -49.0948 198.863 -68.7413L199.229 -68.985L198.284 -69.8979L198.09 -69.7732C195.044 -67.785 192.001 -65.6344 189.07 -63.3732C164.056 -44.0911 144.751 -17.68 126.082 7.86195C114.209 24.078 101.96 40.8621 88.3704 55.5907C73.1591 72.0898 57.8471 84.2374 41.5567 92.7304C11.7574 108.238 -23.3523 109.326 -57.3285 110.37C-70.7629 110.783 -84.6454 111.201 -97.9986 112.513L-98.1291 112.527L-99.2883 113.886L-98.6326 113.823C-85.1207 112.478 -71.1238 112.104 -57.5959 111.741Z" fill="white"/>
<path d="M-56.6931 104.408C-49.6725 104.22 -42.4121 104.025 -35.3413 103.704C-21.3843 103.063 -3.15345 101.786 14.0262 97.5931C30.397 93.5936 45.8323 86.6097 59.5076 77.0145C87.953 57.1183 108.947 28.406 129.27 0.654191C148.585 -25.7598 168.551 -53.0687 194.863 -72.6366L195.198 -72.8882L194.246 -73.8046L194.048 -73.6569C193.561 -73.2921 193.045 -72.9086 192.496 -72.4668C167.242 -53.0088 147.734 -26.3176 128.879 -0.511394C116.892 15.9055 104.514 32.8236 90.7945 47.7027C75.4322 64.3747 59.9646 76.6419 43.5134 85.2178C13.4296 100.903 -22.0631 101.988 -56.3746 103.039C-67.8711 103.391 -79.7579 103.754 -91.257 104.646L-91.3839 104.654L-92.5394 106.006L-91.8977 105.952C-80.2917 105.041 -68.2973 104.719 -56.6931 104.408Z" fill="white"/>
<path d="M-55.797 97.0709C-48.7044 96.8793 -41.3587 96.688 -34.2055 96.3598C-20.1083 95.718 -1.68606 94.4419 15.6567 90.193C32.1842 86.1426 47.766 79.0828 61.5717 69.3899C90.3141 49.2638 111.503 20.3009 132.003 -7.74538C149.739 -32.0028 168.081 -57.0775 191.156 -76.2223L191.458 -76.4753L190.624 -77.3538L190.421 -77.183C167.572 -58.0523 149.317 -33.0835 131.668 -8.93193C119.592 7.64044 107.056 24.7443 93.2001 39.7704C77.68 56.6117 62.0532 69.0051 45.4596 77.6316C15.0608 93.486 -20.7843 94.5774 -55.4445 95.627C-65.0447 95.9297 -74.9899 96.225 -84.6377 96.8405L-84.7646 96.8487L-85.9238 98.207L-85.2999 98.1692C-75.5518 97.6074 -65.5116 97.3291 -55.797 97.0709Z" fill="white"/>
<path d="M-54.8749 89.7487C-47.7036 89.557 -40.2823 89.3555 -33.0572 89.0235C-17.9428 88.3432 -0.0874323 87.0508 17.2902 82.7868C33.9904 78.7092 49.7354 71.5834 63.6818 61.7909C92.7111 41.514 114.106 12.2213 134.816 -16.1015C150.975 -38.2089 167.701 -61.0788 187.885 -79.4387L188.159 -79.6895L187.269 -80.5471L187.063 -80.3533C167.113 -62.0369 150.481 -39.2858 134.416 -17.2973C122.197 -0.581533 109.554 16.7102 95.5686 31.8869C79.9056 48.8715 64.1151 61.414 47.3318 70.1588C16.6432 86.1539 -19.5616 87.264 -54.575 88.3359C-62.3227 88.574 -70.3271 88.8183 -78.1575 89.2319L-78.2911 89.2365L-79.454 90.6013L-78.8441 90.5728C-70.8809 90.1711 -62.751 89.9518 -54.8749 89.7487Z" fill="white"/>
<path d="M-53.8587 82.3996C-46.6496 82.2028 -39.2052 82.0221 -31.9422 81.685C-17.5906 81.0104 1.21221 79.7098 18.9065 75.3956C35.768 71.2747 51.6652 64.0787 65.7481 54.1924C95.0463 33.7044 116.672 4.12944 137.586 -24.4734C152.179 -44.4337 167.274 -65.0729 184.819 -82.4025L185.072 -82.6475L184.212 -83.4807L184.005 -83.2704C166.657 -65.9957 151.668 -45.4948 137.172 -25.6764C124.83 -8.78999 112.067 8.66595 97.9348 23.9924C82.1134 41.1628 66.1784 53.8055 49.2306 62.6398C18.2344 78.7915 -18.3162 79.9109 -53.6686 80.9956C-59.5993 81.2008 -65.7059 81.3624 -71.7004 81.6181L-71.8339 81.6227L-73.0146 83.0033L-72.4018 82.9849C-66.2093 82.7339 -59.9312 82.5626 -53.8587 82.3996Z" fill="white"/>
<path d="M-52.9734 75.066C-45.6789 74.8726 -38.1448 74.6724 -30.7995 74.3286C-16.2668 73.658 2.68364 72.3435 20.533 68.0024C37.5618 63.8409 53.6173 56.575 67.8416 46.5927C97.4184 25.9071 119.251 -3.95443 140.371 -32.8273C153.396 -50.6505 166.871 -69.0784 182.015 -85.123L182.249 -85.3787L181.412 -86.1911L181.197 -85.9678C166.24 -69.9919 152.915 -51.7037 139.965 -34.0432C127.522 -17.0251 114.642 0.605082 100.355 16.1109C84.3558 33.4398 68.2853 46.2129 51.1662 55.1331C19.9016 71.4033 -17.0161 72.5542 -52.6771 73.6597C-56.7858 73.7924 -61.031 73.9197 -65.2019 74.0699L-65.3354 74.0744L-66.5376 75.4774L-65.9315 75.4554C-61.6337 75.2971 -57.2282 75.1796 -52.9734 75.066Z" fill="white"/>
<path d="M-52.0369 67.7343C-44.6838 67.5301 -37.063 67.3002 -29.6679 66.9916C-15.0054 66.3229 4.13054 64.9893 22.1778 60.5766C39.3607 56.384 55.5626 49.0587 69.9179 38.9922C99.7837 18.1061 121.83 -12.0384 143.147 -41.195C154.614 -56.8839 166.476 -73.0971 179.399 -87.667L179.618 -87.9134L178.804 -88.7646L178.595 -88.5212C165.837 -74.0573 154.108 -58.0011 142.724 -42.4878C130.149 -25.2695 117.138 -7.47227 102.734 8.14809C86.6239 25.6714 70.3474 38.5455 53.0889 47.5264C21.4983 63.9855 -15.7645 65.1292 -51.8017 66.2361L-58.8408 66.4563L-58.9744 66.4608L-60.1876 67.8832L-59.5852 67.8677L-52.0369 67.7343Z" fill="white"/>
<path d="M-28.5262 59.6516C-13.7264 58.9719 5.59424 57.6358 23.8076 53.1768C41.1682 48.9451 57.5375 41.5454 72.0392 31.3735C102.183 10.3065 124.448 -20.144 145.968 -49.5807C155.883 -63.1319 166.123 -77.1439 177.005 -90.0497L177.214 -90.2931L176.403 -91.0747L176.19 -90.8248C165.47 -78.035 155.354 -64.1937 145.566 -50.8031C132.864 -33.4242 119.734 -15.4628 105.189 0.310957C88.8986 17.9827 72.4926 31.0074 55.0622 40.0907C23.1669 56.7165 -14.4453 57.8759 -50.8616 58.9742L-52.5391 59.0226L-53.7775 60.4738L-51.5287 60.4185C-43.9702 60.206 -36.1409 59.9779 -28.5262 59.6516Z" fill="white"/>
<path d="M-27.3966 52.3038C-12.4567 51.623 7.04644 50.2579 25.4252 45.7691C42.9459 41.4921 59.4647 34.0173 74.0971 23.745C104.53 2.46095 126.999 -28.2696 148.726 -57.9763C157.076 -69.3969 165.709 -81.207 174.664 -92.2951L174.864 -92.5687L174.066 -93.343L173.853 -93.0766C165.041 -82.1154 156.534 -70.4824 148.314 -59.2289C135.493 -41.6859 122.235 -23.5474 107.528 -7.64097C91.0794 10.2001 74.5318 23.335 56.9161 32.5136C42.9093 39.8194 26.6786 44.7658 7.31279 47.6343C-9.74772 50.1648 -27.6606 50.8848 -46.0494 51.4598L-46.1933 51.4673L-47.4569 52.9473L-46.8544 52.9318C-40.6023 52.8058 -33.9882 52.6116 -27.3966 52.3038Z" fill="white"/>
<path d="M-26.2586 44.97C-10.2399 44.2499 8.63105 42.8759 27.0617 38.3726C44.7435 34.0464 61.4127 26.4946 76.1776 16.1211C106.9 -5.36336 129.578 -36.3704 151.502 -66.3608C158.298 -75.6537 165.329 -85.2684 172.486 -94.444L172.677 -94.6881L171.883 -95.4524L171.673 -95.1759C164.656 -86.1537 157.762 -76.7191 151.1 -67.5998C138.159 -49.8925 124.781 -31.5898 109.961 -15.5157C93.3652 2.49169 76.6517 15.7492 58.8952 25.0215C29.2739 40.4465 -4.60099 42.7969 -39.5948 43.9724L-39.7284 43.9769L-41.0208 45.4922L-40.4251 45.4731C-34.9001 45.3212 -30.3901 45.1582 -26.2586 44.97Z" fill="white"/>
<path d="M-25.1257 37.6165C3.82244 36.2971 18.8418 33.3663 28.7041 30.9369C46.5496 26.5793 63.374 18.9637 78.2759 8.49833C109.283 -13.1801 132.173 -44.4802 154.31 -74.7536C159.545 -81.9223 164.974 -89.3416 170.406 -96.4891L170.587 -96.7304L169.799 -97.4911L169.586 -97.2081C164.294 -90.214 159.009 -82.9877 153.906 -76.0026C140.844 -58.1312 127.34 -39.6514 112.383 -23.4303C95.6295 -5.25364 78.7567 8.13001 60.8268 17.4616C47.7783 24.2659 32.9606 29.0307 15.5279 32.03C-1.02676 34.8824 -18.3894 35.8466 -33.1627 36.3883L-33.303 36.3892L-34.6102 37.9305L-34.0144 37.9114C-30.7403 37.8643 -27.8187 37.7467 -25.1257 37.6165Z" fill="white"/>
</svg>
