<svg width="140" height="140" viewBox="0 0 140 140" fill="none" xmlns="http://www.w3.org/2000/svg">
<g clip-path="url(#clip0_415_24529)">
<path d="M65.5029 92.6018L107.128 134.227C114.521 141.619 126.506 141.619 133.899 134.227C141.292 126.834 141.292 114.848 133.899 107.455L91.9453 65.5017M65.5029 92.6018L83.3228 70.9634C85.5788 68.224 88.5962 66.5005 91.9453 65.5017M65.5029 92.6018L32.2707 132.955C28.8157 137.151 23.6657 139.581 18.2309 139.581C8.18597 139.581 0.0429688 131.438 0.0429688 121.393C0.0429688 115.958 2.4734 110.808 6.66869 107.353L55.4745 67.1602M91.9453 65.5017C95.8674 64.3319 100.244 64.1561 104.386 64.5062C105.29 64.5826 106.204 64.6215 107.128 64.6215C124.87 64.6215 139.253 50.2385 139.253 32.4961C139.253 27.7824 138.238 23.3059 136.415 19.2732L113.026 42.6618C105.061 40.8334 98.7916 34.5638 96.9632 26.599L120.352 3.21005C116.319 1.38602 111.842 0.370609 107.128 0.370609C89.3855 0.370609 75.0024 14.7537 75.0024 32.4961C75.0024 33.4198 75.0414 34.3343 75.1178 35.2382C75.7668 42.9159 74.6082 51.4031 68.6605 56.3012L67.9318 56.9013M55.4745 67.1602L26.1646 37.8503H16.1057L0.0429688 11.0791L10.7515 0.370609L37.5227 16.4333V26.4923L67.9318 56.9013M55.4745 67.1602L67.9318 56.9013M115.159 115.487L96.4194 96.747M18.7274 120.841H18.7809V120.895H18.7274V120.841Z" stroke="white" stroke-width="0.33" stroke-linecap="round" stroke-linejoin="round"/>
</g>
<defs>
<clipPath id="clip0_415_24529">
<rect width="140" height="140" fill="white"/>
</clipPath>
</defs>
</svg>
