<svg width="160" height="140" viewBox="0 0 160 140" fill="none" xmlns="http://www.w3.org/2000/svg">
<g clip-path="url(#clip0_410_24199)">
<path d="M98.212 57.0915C98.212 78.7626 82.3486 98.149 62.7798 100.394C43.2115 102.637 27.3477 86.8878 27.3477 65.2171C27.3477 43.546 43.211 24.1596 62.7798 21.9148C82.3481 19.6715 98.212 35.4209 98.212 57.0915Z" stroke="#21201C" stroke-width="0.331406" stroke-linecap="round" stroke-linejoin="round"/>
<path d="M104.263 59.6283C104.263 81.2994 88.3994 100.686 68.8306 102.931C49.2622 105.174 33.3984 89.4245 33.3984 67.7538C33.3984 46.0827 49.2618 26.6963 68.8306 24.4515C88.3989 22.2082 104.263 37.9576 104.263 59.6283Z" stroke="#21201C" stroke-width="0.331406" stroke-linecap="round" stroke-linejoin="round"/>
<path d="M116.368 64.706C116.368 86.3771 100.505 105.763 80.9361 108.008C61.3677 110.252 45.5039 94.5022 45.5039 72.8315C45.5039 51.1604 61.3673 31.774 80.9361 29.5292C100.504 27.2859 116.368 43.0353 116.368 64.706Z" stroke="#21201C" stroke-width="0.331406" stroke-linecap="round" stroke-linejoin="round"/>
<path d="M110.313 62.165C110.313 83.8361 94.4497 103.222 74.8809 105.467C55.3126 107.711 39.4492 91.9608 39.4492 70.2884C39.4492 48.6173 55.3126 29.231 74.8814 26.9861C94.4497 24.7428 110.313 40.4943 110.313 62.165Z" stroke="#21201C" stroke-width="0.331406" stroke-linecap="round" stroke-linejoin="round"/>
<path d="M55.2575 138.891L34.2319 127.015L1.88672 70.0153L33.7183 6.5993L98.1423 0.237305L123.742 3.6933L62.4143 28.3433L37.6655 74.6193L55.2575 138.891Z" fill="#F1F1F1" stroke="#21201C" stroke-width="0.3314" stroke-linejoin="round"/>
<path d="M123.74 3.6221L54.8079 10.5153L20.6055 78.1233L55.2039 138.967L124.004 132.207L158.336 64.4673L123.74 3.6221ZM91.6599 31.1949C109.527 31.1561 123.475 46.2725 123.475 66.5889C123.475 88.2597 107.517 107.693 87.9483 109.937C68.3799 112.18 52.5543 96.3465 52.5543 74.6757C52.5543 53.0049 68.3799 33.7037 87.9483 31.4597C89.1713 31.3195 90.4687 31.1975 91.6599 31.1949Z" fill="#F1F1F1" stroke="#21201C" stroke-width="0.3314" stroke-linecap="round" stroke-linejoin="round"/>
<path d="M2.02344 70.1913L20.659 77.9473" stroke="#F1F1F1" stroke-width="0.353493"/>
<path d="M33.957 6.9373L54.7818 10.5825" stroke="#F1F1F1" stroke-width="0.353493"/>
</g>
<defs>
<clipPath id="clip0_410_24199">
<rect width="160" height="139.13" fill="white"/>
</clipPath>
</defs>
</svg>
